M48
;GenerationSoftware,Autodesk,EAGLE,9.6.2*%
;CreationDate,2022-12-12T04:50:06Z*%
FMAT,2
ICI,OFF
METRIC,TZ,000.000
T9C0.305
T8C0.889
T7C0.920
T6C1.000
T5C1.400
T4C2.300
T3C2.500
T2C3.000
T1C3.175
%
G90
M71
T1
X5080Y96520
X121920Y96520
X121920Y5080
X5080Y5080
T2
X36195Y11430
X93345Y11430
X36195Y87630
X93345Y87630
T3
X104220Y57800
X114220Y57800
X25988Y59578
X35988Y59578
T4
X101070Y22690
X114210Y22690
T5
X21490Y76160
X21490Y71160
X8990Y71160
X8990Y76160
X8990Y86400
X21490Y91400
X21490Y86400
X8990Y91400
T6
X66040Y87630
X106720Y50800
X109220Y50800
X111720Y50800
X40640Y87630
X43180Y87630
X45720Y87630
X48260Y87630
X50800Y87630
X53340Y87630
X55880Y87630
X58420Y87630
X60960Y87630
X63500Y87630
X68580Y87630
X71120Y87630
X73660Y87630
X76200Y87630
X78740Y87630
X81280Y87630
X83820Y87630
X86360Y87630
X88900Y87630
X40640Y11430
X43180Y11430
X45720Y11430
X48260Y11430
X50800Y11430
X53340Y11430
X55880Y11430
X58420Y11430
X28488Y52578
X63500Y11430
X66040Y11430
X68580Y11430
X71120Y11430
X73660Y11430
X76200Y11430
X78740Y11430
X81280Y11430
X83820Y11430
X86360Y11430
X88900Y11430
X30988Y52578
X33488Y52578
X60960Y11430
T7
X104140Y25400
X106640Y25400
X108640Y25400
X111140Y25400
T8
X8450Y18770
X46550Y44170
X46550Y46710
X49090Y44170
X5910Y18770
X5910Y21310
X21150Y18770
X8450Y21310
X10990Y18770
X10990Y21310
X13530Y18770
X13530Y21310
X16070Y18770
X16070Y21310
X18610Y18770
X18610Y21310
X49090Y46710
X21150Y21310
X23690Y18770
X23690Y21310
X26230Y18770
X26230Y21310
X28770Y18770
X28770Y21310
X31310Y18770
X31310Y21310
X33850Y18770
X33850Y21310
X36390Y18770
X36390Y21310
X38930Y18770
X38930Y21310
X41470Y18770
X41470Y21310
X44010Y18770
X44010Y21310
X46550Y18770
X46550Y21310
X49090Y18770
X49090Y21310
X5910Y44170
X5910Y46710
X8450Y44170
X8450Y46710
X10990Y44170
X10990Y46710
X13530Y44170
X13530Y46710
X16070Y44170
X16070Y46710
X18610Y44170
X18610Y46710
X21150Y44170
X21150Y46710
X23690Y44170
X23690Y46710
X26230Y44170
X26230Y46710
X28770Y44170
X28770Y46710
X31310Y44170
X31310Y46710
X33850Y44170
X33850Y46710
X36390Y44170
X36390Y46710
X38930Y44170
X38930Y46710
X41470Y44170
X41470Y46710
X44010Y44170
X44010Y46710
T9
X97028Y22606
X121412Y27940
X3302Y73660
X3048Y86360
M30