G04 EAGLE Gerber RS-274X export*
G75*
%MOMM*%
%FSLAX34Y34*%
%LPD*%
%INBottom Copper*%
%IPPOS*%
%AMOC8*
5,1,8,0,0,1.08239X$1,22.5*%
G01*
%ADD10C,1.016000*%
%ADD11R,1.676400X1.676400*%
%ADD12C,1.676400*%
%ADD13C,4.016000*%
%ADD14R,1.288000X1.288000*%
%ADD15C,1.288000*%
%ADD16C,3.220000*%
%ADD17C,4.445000*%
%ADD18C,1.400000*%
%ADD19C,1.960000*%
%ADD20R,1.524000X1.524000*%
%ADD21P,1.649562X8X22.500000*%
%ADD22C,0.609600*%
%ADD23C,0.254000*%


D10*
X990600Y76200D03*
X292100Y952500D03*
X50800Y101600D03*
D11*
X406400Y876300D03*
D12*
X431800Y876300D03*
X457200Y876300D03*
X482600Y876300D03*
X508000Y876300D03*
X533400Y876300D03*
X558800Y876300D03*
X584200Y876300D03*
X609600Y876300D03*
X635000Y876300D03*
X660400Y876300D03*
X685800Y876300D03*
X711200Y876300D03*
X736600Y876300D03*
X762000Y876300D03*
X787400Y876300D03*
X812800Y876300D03*
X838200Y876300D03*
X863600Y876300D03*
X889000Y876300D03*
D11*
X406400Y114300D03*
D12*
X431800Y114300D03*
X457200Y114300D03*
X482600Y114300D03*
X508000Y114300D03*
X533400Y114300D03*
X558800Y114300D03*
X584200Y114300D03*
X609600Y114300D03*
X635000Y114300D03*
X660400Y114300D03*
X685800Y114300D03*
X711200Y114300D03*
X736600Y114300D03*
X762000Y114300D03*
X787400Y114300D03*
X812800Y114300D03*
X838200Y114300D03*
X863600Y114300D03*
X889000Y114300D03*
D13*
X361950Y114300D03*
X933450Y114300D03*
X361950Y876300D03*
X933450Y876300D03*
D14*
X1041400Y254000D03*
D15*
X1066400Y254000D03*
X1086400Y254000D03*
X1111400Y254000D03*
D16*
X1010700Y226900D03*
X1142100Y226900D03*
D17*
X50800Y965200D03*
X1219200Y965200D03*
X1219200Y50800D03*
X50800Y50800D03*
D18*
X1067200Y508000D03*
X1092200Y508000D03*
X1117200Y508000D03*
X284880Y525780D03*
X309880Y525780D03*
X334880Y525780D03*
D19*
X214900Y761600D03*
X214900Y711600D03*
X89900Y711600D03*
X89900Y761600D03*
X214900Y914000D03*
X214900Y864000D03*
X89900Y864000D03*
X89900Y914000D03*
D20*
X59100Y187700D03*
D21*
X59100Y213100D03*
X84500Y187700D03*
X84500Y213100D03*
X109900Y187700D03*
X109900Y213100D03*
X135300Y187700D03*
X135300Y213100D03*
X160700Y187700D03*
X160700Y213100D03*
X186100Y187700D03*
X186100Y213100D03*
X211500Y187700D03*
X211500Y213100D03*
X236900Y187700D03*
X236900Y213100D03*
X262300Y187700D03*
X262300Y213100D03*
X287700Y187700D03*
X287700Y213100D03*
X313100Y187700D03*
X313100Y213100D03*
X338500Y187700D03*
X338500Y213100D03*
X363900Y187700D03*
X363900Y213100D03*
X389300Y187700D03*
X389300Y213100D03*
X414700Y187700D03*
X414700Y213100D03*
X440100Y187700D03*
X440100Y213100D03*
X465500Y187700D03*
X465500Y213100D03*
X490900Y187700D03*
X490900Y213100D03*
D20*
X59100Y441700D03*
D21*
X59100Y467100D03*
X84500Y441700D03*
X84500Y467100D03*
X109900Y441700D03*
X109900Y467100D03*
X135300Y441700D03*
X135300Y467100D03*
X160700Y441700D03*
X160700Y467100D03*
X186100Y441700D03*
X186100Y467100D03*
X211500Y441700D03*
X211500Y467100D03*
X236900Y441700D03*
X236900Y467100D03*
X262300Y441700D03*
X262300Y467100D03*
X287700Y441700D03*
X287700Y467100D03*
X313100Y441700D03*
X313100Y467100D03*
X338500Y441700D03*
X338500Y467100D03*
X363900Y441700D03*
X363900Y467100D03*
X389300Y441700D03*
X389300Y467100D03*
X414700Y441700D03*
X414700Y467100D03*
X440100Y441700D03*
X440100Y467100D03*
X465500Y441700D03*
X465500Y467100D03*
X490900Y441700D03*
X490900Y467100D03*
D22*
X33020Y736600D03*
X30480Y863600D03*
D23*
X1009860Y226060D02*
X1010700Y226900D01*
D22*
X970280Y226060D03*
D23*
X1009860Y226060D01*
X1142100Y226900D02*
X1156500Y241300D01*
X1176020Y241300D01*
D22*
X1214120Y279400D03*
D23*
X1176020Y241300D01*
X1219200Y149800D02*
X1219200Y50800D01*
X1219200Y149800D02*
X1142100Y226900D01*
X1209040Y284480D02*
X1209040Y955040D01*
X1209040Y284480D02*
X1214120Y279400D01*
X1209040Y955040D02*
X1219200Y965200D01*
X1148080Y226060D02*
X1009860Y226060D01*
X970280Y226060D02*
X962660Y218440D01*
X962660Y63500D01*
X922020Y22860D01*
X78740Y22860D01*
X50800Y50800D01*
X12700Y88900D01*
X12700Y927100D02*
X50800Y965200D01*
X12700Y927100D02*
X12700Y88900D01*
X50800Y965200D02*
X1221740Y965200D01*
X1224280Y967740D01*
M02*
