G04 EAGLE Gerber RS-274X export*
G75*
%MOMM*%
%FSLAX34Y34*%
%LPD*%
%INCopper Layer 2*%
%IPPOS*%
%AMOC8*
5,1,8,0,0,1.08239X$1,22.5*%
G01*
%ADD10C,1.400000*%
%ADD11C,4.016000*%
%ADD12C,1.288000*%
%ADD13C,3.220000*%
%ADD14C,4.191000*%
%ADD15C,1.960000*%
%ADD16C,1.244600*%
%ADD17C,0.609600*%

G36*
X1266308Y2556D02*
X1266308Y2556D01*
X1266427Y2563D01*
X1266465Y2576D01*
X1266506Y2581D01*
X1266616Y2624D01*
X1266729Y2661D01*
X1266764Y2683D01*
X1266801Y2698D01*
X1266897Y2767D01*
X1266998Y2831D01*
X1267026Y2861D01*
X1267059Y2884D01*
X1267135Y2976D01*
X1267216Y3063D01*
X1267236Y3098D01*
X1267261Y3129D01*
X1267312Y3237D01*
X1267370Y3341D01*
X1267380Y3381D01*
X1267397Y3417D01*
X1267419Y3534D01*
X1267449Y3649D01*
X1267453Y3709D01*
X1267457Y3729D01*
X1267455Y3750D01*
X1267459Y3810D01*
X1267459Y1012190D01*
X1267444Y1012308D01*
X1267437Y1012427D01*
X1267424Y1012465D01*
X1267419Y1012506D01*
X1267376Y1012616D01*
X1267339Y1012729D01*
X1267317Y1012764D01*
X1267302Y1012801D01*
X1267233Y1012897D01*
X1267169Y1012998D01*
X1267139Y1013026D01*
X1267116Y1013059D01*
X1267024Y1013135D01*
X1266937Y1013216D01*
X1266902Y1013236D01*
X1266871Y1013261D01*
X1266763Y1013312D01*
X1266659Y1013370D01*
X1266619Y1013380D01*
X1266583Y1013397D01*
X1266466Y1013419D01*
X1266351Y1013449D01*
X1266291Y1013453D01*
X1266271Y1013457D01*
X1266250Y1013455D01*
X1266190Y1013459D01*
X3810Y1013459D01*
X3692Y1013444D01*
X3573Y1013437D01*
X3535Y1013424D01*
X3494Y1013419D01*
X3384Y1013376D01*
X3271Y1013339D01*
X3236Y1013317D01*
X3199Y1013302D01*
X3103Y1013233D01*
X3002Y1013169D01*
X2974Y1013139D01*
X2941Y1013116D01*
X2865Y1013024D01*
X2784Y1012937D01*
X2764Y1012902D01*
X2739Y1012871D01*
X2688Y1012763D01*
X2630Y1012659D01*
X2620Y1012619D01*
X2603Y1012583D01*
X2581Y1012466D01*
X2551Y1012351D01*
X2547Y1012291D01*
X2543Y1012271D01*
X2545Y1012250D01*
X2541Y1012190D01*
X2541Y3810D01*
X2556Y3692D01*
X2563Y3573D01*
X2576Y3535D01*
X2581Y3494D01*
X2624Y3384D01*
X2661Y3271D01*
X2683Y3236D01*
X2698Y3199D01*
X2767Y3103D01*
X2831Y3002D01*
X2861Y2974D01*
X2884Y2941D01*
X2976Y2865D01*
X3063Y2784D01*
X3098Y2764D01*
X3129Y2739D01*
X3237Y2688D01*
X3341Y2630D01*
X3381Y2620D01*
X3417Y2603D01*
X3534Y2581D01*
X3649Y2551D01*
X3709Y2547D01*
X3729Y2543D01*
X3750Y2545D01*
X3810Y2541D01*
X1266190Y2541D01*
X1266308Y2556D01*
G37*
%LPC*%
G36*
X1214526Y941704D02*
X1214526Y941704D01*
X1205891Y945281D01*
X1199281Y951891D01*
X1195704Y960526D01*
X1195704Y969874D01*
X1199281Y978509D01*
X1205891Y985119D01*
X1214526Y988696D01*
X1223874Y988696D01*
X1232509Y985119D01*
X1239119Y978509D01*
X1242696Y969874D01*
X1242696Y960526D01*
X1239119Y951891D01*
X1232509Y945281D01*
X1223874Y941704D01*
X1214526Y941704D01*
G37*
%LPD*%
%LPC*%
G36*
X46126Y941704D02*
X46126Y941704D01*
X37491Y945281D01*
X30881Y951891D01*
X27304Y960526D01*
X27304Y969874D01*
X30881Y978509D01*
X37491Y985119D01*
X46126Y988696D01*
X55474Y988696D01*
X64109Y985119D01*
X70719Y978509D01*
X74296Y969874D01*
X74296Y960526D01*
X70719Y951891D01*
X64109Y945281D01*
X55474Y941704D01*
X46126Y941704D01*
G37*
%LPD*%
%LPC*%
G36*
X1214526Y27304D02*
X1214526Y27304D01*
X1205891Y30881D01*
X1199281Y37491D01*
X1195704Y46126D01*
X1195704Y55474D01*
X1199281Y64109D01*
X1205891Y70719D01*
X1214526Y74296D01*
X1223874Y74296D01*
X1232509Y70719D01*
X1239119Y64109D01*
X1242696Y55474D01*
X1242696Y46126D01*
X1239119Y37491D01*
X1232509Y30881D01*
X1223874Y27304D01*
X1214526Y27304D01*
G37*
%LPD*%
%LPC*%
G36*
X46126Y27304D02*
X46126Y27304D01*
X37491Y30881D01*
X30881Y37491D01*
X27304Y46126D01*
X27304Y55474D01*
X30881Y64109D01*
X37491Y70719D01*
X46126Y74296D01*
X55474Y74296D01*
X64109Y70719D01*
X70719Y64109D01*
X74296Y55474D01*
X74296Y46126D01*
X70719Y37491D01*
X64109Y30881D01*
X55474Y27304D01*
X46126Y27304D01*
G37*
%LPD*%
%LPC*%
G36*
X928950Y853679D02*
X928950Y853679D01*
X920636Y857123D01*
X914273Y863486D01*
X910829Y871800D01*
X910829Y880800D01*
X914273Y889114D01*
X920636Y895477D01*
X928950Y898921D01*
X937950Y898921D01*
X946264Y895477D01*
X952627Y889114D01*
X956071Y880800D01*
X956071Y871800D01*
X952627Y863486D01*
X946264Y857123D01*
X937950Y853679D01*
X928950Y853679D01*
G37*
%LPD*%
%LPC*%
G36*
X357450Y853679D02*
X357450Y853679D01*
X349136Y857123D01*
X342773Y863486D01*
X339329Y871800D01*
X339329Y880800D01*
X342773Y889114D01*
X349136Y895477D01*
X357450Y898921D01*
X366450Y898921D01*
X374764Y895477D01*
X381127Y889114D01*
X384571Y880800D01*
X384571Y871800D01*
X381127Y863486D01*
X374764Y857123D01*
X366450Y853679D01*
X357450Y853679D01*
G37*
%LPD*%
%LPC*%
G36*
X357450Y91679D02*
X357450Y91679D01*
X349136Y95123D01*
X342773Y101486D01*
X339329Y109800D01*
X339329Y118800D01*
X342773Y127114D01*
X349136Y133477D01*
X357450Y136921D01*
X366450Y136921D01*
X374764Y133477D01*
X381127Y127114D01*
X384571Y118800D01*
X384571Y109800D01*
X381127Y101486D01*
X374764Y95123D01*
X366450Y91679D01*
X357450Y91679D01*
G37*
%LPD*%
%LPC*%
G36*
X928950Y91679D02*
X928950Y91679D01*
X920636Y95123D01*
X914273Y101486D01*
X910829Y109800D01*
X910829Y118800D01*
X914273Y127114D01*
X920636Y133477D01*
X928950Y136921D01*
X937950Y136921D01*
X946264Y133477D01*
X952627Y127114D01*
X956071Y118800D01*
X956071Y109800D01*
X952627Y101486D01*
X946264Y95123D01*
X937950Y91679D01*
X928950Y91679D01*
G37*
%LPD*%
%LPC*%
G36*
X1006992Y208259D02*
X1006992Y208259D01*
X1000141Y211097D01*
X994897Y216341D01*
X992059Y223192D01*
X992059Y230608D01*
X994897Y237459D01*
X1000141Y242703D01*
X1006992Y245541D01*
X1014408Y245541D01*
X1021259Y242703D01*
X1026503Y237459D01*
X1029341Y230608D01*
X1029341Y223192D01*
X1026503Y216341D01*
X1021259Y211097D01*
X1014408Y208259D01*
X1006992Y208259D01*
G37*
%LPD*%
%LPC*%
G36*
X1138392Y208259D02*
X1138392Y208259D01*
X1131541Y211097D01*
X1126297Y216341D01*
X1123459Y223192D01*
X1123459Y230608D01*
X1126297Y237459D01*
X1131541Y242703D01*
X1138392Y245541D01*
X1145808Y245541D01*
X1152659Y242703D01*
X1157903Y237459D01*
X1160741Y230608D01*
X1160741Y223192D01*
X1157903Y216341D01*
X1152659Y211097D01*
X1145808Y208259D01*
X1138392Y208259D01*
G37*
%LPD*%
%LPC*%
G36*
X356888Y580739D02*
X356888Y580739D01*
X351360Y583029D01*
X347129Y587260D01*
X344839Y592788D01*
X344839Y598772D01*
X347129Y604300D01*
X351360Y608531D01*
X356888Y610821D01*
X362872Y610821D01*
X368400Y608531D01*
X372631Y604300D01*
X374921Y598772D01*
X374921Y592788D01*
X372631Y587260D01*
X368400Y583029D01*
X362872Y580739D01*
X356888Y580739D01*
G37*
%LPD*%
%LPC*%
G36*
X256888Y580739D02*
X256888Y580739D01*
X251360Y583029D01*
X247129Y587260D01*
X244839Y592788D01*
X244839Y598772D01*
X247129Y604300D01*
X251360Y608531D01*
X256888Y610821D01*
X262872Y610821D01*
X268400Y608531D01*
X272631Y604300D01*
X274921Y598772D01*
X274921Y592788D01*
X272631Y587260D01*
X268400Y583029D01*
X262872Y580739D01*
X256888Y580739D01*
G37*
%LPD*%
%LPC*%
G36*
X1139208Y562959D02*
X1139208Y562959D01*
X1133680Y565249D01*
X1129449Y569480D01*
X1127159Y575008D01*
X1127159Y580992D01*
X1129449Y586520D01*
X1133680Y590751D01*
X1139208Y593041D01*
X1145192Y593041D01*
X1150720Y590751D01*
X1154951Y586520D01*
X1157241Y580992D01*
X1157241Y575008D01*
X1154951Y569480D01*
X1150720Y565249D01*
X1145192Y562959D01*
X1139208Y562959D01*
G37*
%LPD*%
%LPC*%
G36*
X1039208Y562959D02*
X1039208Y562959D01*
X1033680Y565249D01*
X1029449Y569480D01*
X1027159Y575008D01*
X1027159Y580992D01*
X1029449Y586520D01*
X1033680Y590751D01*
X1039208Y593041D01*
X1045192Y593041D01*
X1050720Y590751D01*
X1054951Y586520D01*
X1057241Y580992D01*
X1057241Y575008D01*
X1054951Y569480D01*
X1050720Y565249D01*
X1045192Y562959D01*
X1039208Y562959D01*
G37*
%LPD*%
%LPC*%
G36*
X1064614Y245019D02*
X1064614Y245019D01*
X1061313Y246386D01*
X1058786Y248913D01*
X1057419Y252214D01*
X1057419Y255786D01*
X1058786Y259087D01*
X1061313Y261614D01*
X1064614Y262981D01*
X1068186Y262981D01*
X1071487Y261614D01*
X1074014Y259087D01*
X1075227Y256157D01*
X1075296Y256036D01*
X1075361Y255913D01*
X1075375Y255898D01*
X1075385Y255880D01*
X1075482Y255780D01*
X1075575Y255678D01*
X1075592Y255666D01*
X1075606Y255652D01*
X1075724Y255579D01*
X1075841Y255503D01*
X1075860Y255496D01*
X1075877Y255486D01*
X1076010Y255445D01*
X1076142Y255400D01*
X1076162Y255398D01*
X1076181Y255392D01*
X1076320Y255385D01*
X1076459Y255374D01*
X1076479Y255378D01*
X1076499Y255377D01*
X1076635Y255405D01*
X1076772Y255429D01*
X1076791Y255437D01*
X1076810Y255441D01*
X1076935Y255502D01*
X1077062Y255559D01*
X1077078Y255572D01*
X1077096Y255581D01*
X1077202Y255671D01*
X1077310Y255758D01*
X1077323Y255774D01*
X1077338Y255787D01*
X1077418Y255901D01*
X1077502Y256012D01*
X1077514Y256037D01*
X1077521Y256047D01*
X1077528Y256067D01*
X1077573Y256157D01*
X1078786Y259087D01*
X1081313Y261614D01*
X1084614Y262981D01*
X1088186Y262981D01*
X1091487Y261614D01*
X1094014Y259087D01*
X1095381Y255786D01*
X1095381Y252214D01*
X1094014Y248913D01*
X1091487Y246386D01*
X1088186Y245019D01*
X1084614Y245019D01*
X1081313Y246386D01*
X1078786Y248913D01*
X1077573Y251843D01*
X1077567Y251853D01*
X1077567Y251854D01*
X1077504Y251964D01*
X1077439Y252087D01*
X1077425Y252102D01*
X1077415Y252120D01*
X1077318Y252220D01*
X1077225Y252322D01*
X1077208Y252333D01*
X1077194Y252348D01*
X1077075Y252421D01*
X1076959Y252497D01*
X1076940Y252504D01*
X1076923Y252514D01*
X1076790Y252555D01*
X1076658Y252600D01*
X1076638Y252602D01*
X1076619Y252608D01*
X1076480Y252615D01*
X1076341Y252626D01*
X1076321Y252622D01*
X1076301Y252623D01*
X1076165Y252595D01*
X1076028Y252571D01*
X1076009Y252563D01*
X1075990Y252559D01*
X1075864Y252497D01*
X1075738Y252441D01*
X1075722Y252428D01*
X1075704Y252419D01*
X1075598Y252329D01*
X1075490Y252242D01*
X1075477Y252226D01*
X1075462Y252213D01*
X1075382Y252099D01*
X1075298Y251988D01*
X1075286Y251963D01*
X1075279Y251953D01*
X1075272Y251933D01*
X1075227Y251843D01*
X1074014Y248913D01*
X1071487Y246386D01*
X1068186Y245019D01*
X1064614Y245019D01*
G37*
%LPD*%
%LPC*%
G36*
X212445Y901659D02*
X212445Y901659D01*
X207910Y903538D01*
X204438Y907010D01*
X202559Y911545D01*
X202559Y916455D01*
X204438Y920990D01*
X207910Y924462D01*
X212445Y926341D01*
X217355Y926341D01*
X221890Y924462D01*
X225362Y920990D01*
X227241Y916455D01*
X227241Y911545D01*
X225362Y907010D01*
X221890Y903538D01*
X217355Y901659D01*
X212445Y901659D01*
G37*
%LPD*%
%LPC*%
G36*
X87445Y901659D02*
X87445Y901659D01*
X82910Y903538D01*
X79438Y907010D01*
X77559Y911545D01*
X77559Y916455D01*
X79438Y920990D01*
X82910Y924462D01*
X87445Y926341D01*
X92355Y926341D01*
X96890Y924462D01*
X100362Y920990D01*
X102241Y916455D01*
X102241Y911545D01*
X100362Y907010D01*
X96890Y903538D01*
X92355Y901659D01*
X87445Y901659D01*
G37*
%LPD*%
%LPC*%
G36*
X212445Y851659D02*
X212445Y851659D01*
X207910Y853538D01*
X204438Y857010D01*
X202559Y861545D01*
X202559Y866455D01*
X204438Y870990D01*
X207910Y874462D01*
X212445Y876341D01*
X217355Y876341D01*
X221890Y874462D01*
X225362Y870990D01*
X227241Y866455D01*
X227241Y861545D01*
X225362Y857010D01*
X221890Y853538D01*
X217355Y851659D01*
X212445Y851659D01*
G37*
%LPD*%
%LPC*%
G36*
X87445Y851659D02*
X87445Y851659D01*
X82910Y853538D01*
X79438Y857010D01*
X77559Y861545D01*
X77559Y866455D01*
X79438Y870990D01*
X82910Y874462D01*
X87445Y876341D01*
X92355Y876341D01*
X96890Y874462D01*
X100362Y870990D01*
X102241Y866455D01*
X102241Y861545D01*
X100362Y857010D01*
X96890Y853538D01*
X92355Y851659D01*
X87445Y851659D01*
G37*
%LPD*%
%LPC*%
G36*
X212445Y749259D02*
X212445Y749259D01*
X207910Y751138D01*
X204438Y754610D01*
X202559Y759145D01*
X202559Y764055D01*
X204438Y768590D01*
X207910Y772062D01*
X212445Y773941D01*
X217355Y773941D01*
X221890Y772062D01*
X225362Y768590D01*
X227241Y764055D01*
X227241Y759145D01*
X225362Y754610D01*
X221890Y751138D01*
X217355Y749259D01*
X212445Y749259D01*
G37*
%LPD*%
%LPC*%
G36*
X87445Y749259D02*
X87445Y749259D01*
X82910Y751138D01*
X79438Y754610D01*
X77559Y759145D01*
X77559Y764055D01*
X79438Y768590D01*
X82910Y772062D01*
X87445Y773941D01*
X92355Y773941D01*
X96890Y772062D01*
X100362Y768590D01*
X102241Y764055D01*
X102241Y759145D01*
X100362Y754610D01*
X96890Y751138D01*
X92355Y749259D01*
X87445Y749259D01*
G37*
%LPD*%
%LPC*%
G36*
X212445Y699259D02*
X212445Y699259D01*
X207910Y701138D01*
X204438Y704610D01*
X202559Y709145D01*
X202559Y714055D01*
X204438Y718590D01*
X207910Y722062D01*
X212445Y723941D01*
X217355Y723941D01*
X221890Y722062D01*
X225362Y718590D01*
X227241Y714055D01*
X227241Y709145D01*
X225362Y704610D01*
X221890Y701138D01*
X217355Y699259D01*
X212445Y699259D01*
G37*
%LPD*%
%LPC*%
G36*
X87445Y699259D02*
X87445Y699259D01*
X82910Y701138D01*
X79438Y704610D01*
X77559Y709145D01*
X77559Y714055D01*
X79438Y718590D01*
X82910Y722062D01*
X87445Y723941D01*
X92355Y723941D01*
X96890Y722062D01*
X100362Y718590D01*
X102241Y714055D01*
X102241Y709145D01*
X100362Y704610D01*
X96890Y701138D01*
X92355Y699259D01*
X87445Y699259D01*
G37*
%LPD*%
%LPC*%
G36*
X429902Y866759D02*
X429902Y866759D01*
X426396Y868212D01*
X423712Y870896D01*
X422259Y874402D01*
X422259Y878198D01*
X423712Y881704D01*
X426396Y884388D01*
X429902Y885841D01*
X433698Y885841D01*
X437204Y884388D01*
X439888Y881704D01*
X441341Y878198D01*
X441341Y874402D01*
X439888Y870896D01*
X437204Y868212D01*
X433698Y866759D01*
X429902Y866759D01*
G37*
%LPD*%
%LPC*%
G36*
X404502Y866759D02*
X404502Y866759D01*
X400996Y868212D01*
X398312Y870896D01*
X396859Y874402D01*
X396859Y878198D01*
X398312Y881704D01*
X400996Y884388D01*
X404502Y885841D01*
X408298Y885841D01*
X411804Y884388D01*
X414488Y881704D01*
X415941Y878198D01*
X415941Y874402D01*
X414488Y870896D01*
X411804Y868212D01*
X408298Y866759D01*
X404502Y866759D01*
G37*
%LPD*%
%LPC*%
G36*
X887102Y866759D02*
X887102Y866759D01*
X883596Y868212D01*
X880912Y870896D01*
X879459Y874402D01*
X879459Y878198D01*
X880912Y881704D01*
X883596Y884388D01*
X887102Y885841D01*
X890898Y885841D01*
X894404Y884388D01*
X897088Y881704D01*
X898541Y878198D01*
X898541Y874402D01*
X897088Y870896D01*
X894404Y868212D01*
X890898Y866759D01*
X887102Y866759D01*
G37*
%LPD*%
%LPC*%
G36*
X861702Y866759D02*
X861702Y866759D01*
X858196Y868212D01*
X855512Y870896D01*
X854059Y874402D01*
X854059Y878198D01*
X855512Y881704D01*
X858196Y884388D01*
X861702Y885841D01*
X865498Y885841D01*
X869004Y884388D01*
X871688Y881704D01*
X873141Y878198D01*
X873141Y874402D01*
X871688Y870896D01*
X869004Y868212D01*
X865498Y866759D01*
X861702Y866759D01*
G37*
%LPD*%
%LPC*%
G36*
X836302Y866759D02*
X836302Y866759D01*
X832796Y868212D01*
X830112Y870896D01*
X828659Y874402D01*
X828659Y878198D01*
X830112Y881704D01*
X832796Y884388D01*
X836302Y885841D01*
X840098Y885841D01*
X843604Y884388D01*
X846288Y881704D01*
X847741Y878198D01*
X847741Y874402D01*
X846288Y870896D01*
X843604Y868212D01*
X840098Y866759D01*
X836302Y866759D01*
G37*
%LPD*%
%LPC*%
G36*
X810902Y866759D02*
X810902Y866759D01*
X807396Y868212D01*
X804712Y870896D01*
X803259Y874402D01*
X803259Y878198D01*
X804712Y881704D01*
X807396Y884388D01*
X810902Y885841D01*
X814698Y885841D01*
X818204Y884388D01*
X820888Y881704D01*
X822341Y878198D01*
X822341Y874402D01*
X820888Y870896D01*
X818204Y868212D01*
X814698Y866759D01*
X810902Y866759D01*
G37*
%LPD*%
%LPC*%
G36*
X785502Y866759D02*
X785502Y866759D01*
X781996Y868212D01*
X779312Y870896D01*
X777859Y874402D01*
X777859Y878198D01*
X779312Y881704D01*
X781996Y884388D01*
X785502Y885841D01*
X789298Y885841D01*
X792804Y884388D01*
X795488Y881704D01*
X796941Y878198D01*
X796941Y874402D01*
X795488Y870896D01*
X792804Y868212D01*
X789298Y866759D01*
X785502Y866759D01*
G37*
%LPD*%
%LPC*%
G36*
X760102Y866759D02*
X760102Y866759D01*
X756596Y868212D01*
X753912Y870896D01*
X752459Y874402D01*
X752459Y878198D01*
X753912Y881704D01*
X756596Y884388D01*
X760102Y885841D01*
X763898Y885841D01*
X767404Y884388D01*
X770088Y881704D01*
X771541Y878198D01*
X771541Y874402D01*
X770088Y870896D01*
X767404Y868212D01*
X763898Y866759D01*
X760102Y866759D01*
G37*
%LPD*%
%LPC*%
G36*
X734702Y866759D02*
X734702Y866759D01*
X731196Y868212D01*
X728512Y870896D01*
X727059Y874402D01*
X727059Y878198D01*
X728512Y881704D01*
X731196Y884388D01*
X734702Y885841D01*
X738498Y885841D01*
X742004Y884388D01*
X744688Y881704D01*
X746141Y878198D01*
X746141Y874402D01*
X744688Y870896D01*
X742004Y868212D01*
X738498Y866759D01*
X734702Y866759D01*
G37*
%LPD*%
%LPC*%
G36*
X709302Y866759D02*
X709302Y866759D01*
X705796Y868212D01*
X703112Y870896D01*
X701659Y874402D01*
X701659Y878198D01*
X703112Y881704D01*
X705796Y884388D01*
X709302Y885841D01*
X713098Y885841D01*
X716604Y884388D01*
X719288Y881704D01*
X720741Y878198D01*
X720741Y874402D01*
X719288Y870896D01*
X716604Y868212D01*
X713098Y866759D01*
X709302Y866759D01*
G37*
%LPD*%
%LPC*%
G36*
X683902Y866759D02*
X683902Y866759D01*
X680396Y868212D01*
X677712Y870896D01*
X676259Y874402D01*
X676259Y878198D01*
X677712Y881704D01*
X680396Y884388D01*
X683902Y885841D01*
X687698Y885841D01*
X691204Y884388D01*
X693888Y881704D01*
X695341Y878198D01*
X695341Y874402D01*
X693888Y870896D01*
X691204Y868212D01*
X687698Y866759D01*
X683902Y866759D01*
G37*
%LPD*%
%LPC*%
G36*
X658502Y866759D02*
X658502Y866759D01*
X654996Y868212D01*
X652312Y870896D01*
X650859Y874402D01*
X650859Y878198D01*
X652312Y881704D01*
X654996Y884388D01*
X658502Y885841D01*
X662298Y885841D01*
X665804Y884388D01*
X668488Y881704D01*
X669941Y878198D01*
X669941Y874402D01*
X668488Y870896D01*
X665804Y868212D01*
X662298Y866759D01*
X658502Y866759D01*
G37*
%LPD*%
%LPC*%
G36*
X633102Y866759D02*
X633102Y866759D01*
X629596Y868212D01*
X626912Y870896D01*
X625459Y874402D01*
X625459Y878198D01*
X626912Y881704D01*
X629596Y884388D01*
X633102Y885841D01*
X636898Y885841D01*
X640404Y884388D01*
X643088Y881704D01*
X644541Y878198D01*
X644541Y874402D01*
X643088Y870896D01*
X640404Y868212D01*
X636898Y866759D01*
X633102Y866759D01*
G37*
%LPD*%
%LPC*%
G36*
X607702Y866759D02*
X607702Y866759D01*
X604196Y868212D01*
X601512Y870896D01*
X600059Y874402D01*
X600059Y878198D01*
X601512Y881704D01*
X604196Y884388D01*
X607702Y885841D01*
X611498Y885841D01*
X615004Y884388D01*
X617688Y881704D01*
X619141Y878198D01*
X619141Y874402D01*
X617688Y870896D01*
X615004Y868212D01*
X611498Y866759D01*
X607702Y866759D01*
G37*
%LPD*%
%LPC*%
G36*
X582302Y866759D02*
X582302Y866759D01*
X578796Y868212D01*
X576112Y870896D01*
X574659Y874402D01*
X574659Y878198D01*
X576112Y881704D01*
X578796Y884388D01*
X582302Y885841D01*
X586098Y885841D01*
X589604Y884388D01*
X592288Y881704D01*
X593741Y878198D01*
X593741Y874402D01*
X592288Y870896D01*
X589604Y868212D01*
X586098Y866759D01*
X582302Y866759D01*
G37*
%LPD*%
%LPC*%
G36*
X556902Y866759D02*
X556902Y866759D01*
X553396Y868212D01*
X550712Y870896D01*
X549259Y874402D01*
X549259Y878198D01*
X550712Y881704D01*
X553396Y884388D01*
X556902Y885841D01*
X560698Y885841D01*
X564204Y884388D01*
X566888Y881704D01*
X568341Y878198D01*
X568341Y874402D01*
X566888Y870896D01*
X564204Y868212D01*
X560698Y866759D01*
X556902Y866759D01*
G37*
%LPD*%
%LPC*%
G36*
X531502Y866759D02*
X531502Y866759D01*
X527996Y868212D01*
X525312Y870896D01*
X523859Y874402D01*
X523859Y878198D01*
X525312Y881704D01*
X527996Y884388D01*
X531502Y885841D01*
X535298Y885841D01*
X538804Y884388D01*
X541488Y881704D01*
X542941Y878198D01*
X542941Y874402D01*
X541488Y870896D01*
X538804Y868212D01*
X535298Y866759D01*
X531502Y866759D01*
G37*
%LPD*%
%LPC*%
G36*
X506102Y866759D02*
X506102Y866759D01*
X502596Y868212D01*
X499912Y870896D01*
X498459Y874402D01*
X498459Y878198D01*
X499912Y881704D01*
X502596Y884388D01*
X506102Y885841D01*
X509898Y885841D01*
X513404Y884388D01*
X516088Y881704D01*
X517541Y878198D01*
X517541Y874402D01*
X516088Y870896D01*
X513404Y868212D01*
X509898Y866759D01*
X506102Y866759D01*
G37*
%LPD*%
%LPC*%
G36*
X480702Y866759D02*
X480702Y866759D01*
X477196Y868212D01*
X474512Y870896D01*
X473059Y874402D01*
X473059Y878198D01*
X474512Y881704D01*
X477196Y884388D01*
X480702Y885841D01*
X484498Y885841D01*
X488004Y884388D01*
X490688Y881704D01*
X492141Y878198D01*
X492141Y874402D01*
X490688Y870896D01*
X488004Y868212D01*
X484498Y866759D01*
X480702Y866759D01*
G37*
%LPD*%
%LPC*%
G36*
X455302Y866759D02*
X455302Y866759D01*
X451796Y868212D01*
X449112Y870896D01*
X447659Y874402D01*
X447659Y878198D01*
X449112Y881704D01*
X451796Y884388D01*
X455302Y885841D01*
X459098Y885841D01*
X462604Y884388D01*
X465288Y881704D01*
X466741Y878198D01*
X466741Y874402D01*
X465288Y870896D01*
X462604Y868212D01*
X459098Y866759D01*
X455302Y866759D01*
G37*
%LPD*%
%LPC*%
G36*
X709302Y104759D02*
X709302Y104759D01*
X705796Y106212D01*
X703112Y108896D01*
X701659Y112402D01*
X701659Y116198D01*
X703112Y119704D01*
X705796Y122388D01*
X709302Y123841D01*
X713098Y123841D01*
X716604Y122388D01*
X719288Y119704D01*
X720741Y116198D01*
X720741Y112402D01*
X719288Y108896D01*
X716604Y106212D01*
X713098Y104759D01*
X709302Y104759D01*
G37*
%LPD*%
%LPC*%
G36*
X887102Y104759D02*
X887102Y104759D01*
X883596Y106212D01*
X880912Y108896D01*
X879459Y112402D01*
X879459Y116198D01*
X880912Y119704D01*
X883596Y122388D01*
X887102Y123841D01*
X890898Y123841D01*
X894404Y122388D01*
X897088Y119704D01*
X898541Y116198D01*
X898541Y112402D01*
X897088Y108896D01*
X894404Y106212D01*
X890898Y104759D01*
X887102Y104759D01*
G37*
%LPD*%
%LPC*%
G36*
X307982Y516239D02*
X307982Y516239D01*
X304476Y517692D01*
X301792Y520376D01*
X300339Y523882D01*
X300339Y527678D01*
X301792Y531184D01*
X304476Y533868D01*
X307982Y535321D01*
X311778Y535321D01*
X315284Y533868D01*
X317968Y531184D01*
X319421Y527678D01*
X319421Y523882D01*
X317968Y520376D01*
X315284Y517692D01*
X311778Y516239D01*
X307982Y516239D01*
G37*
%LPD*%
%LPC*%
G36*
X282982Y516239D02*
X282982Y516239D01*
X279476Y517692D01*
X276792Y520376D01*
X275339Y523882D01*
X275339Y527678D01*
X276792Y531184D01*
X279476Y533868D01*
X282982Y535321D01*
X286778Y535321D01*
X290284Y533868D01*
X292968Y531184D01*
X294421Y527678D01*
X294421Y523882D01*
X292968Y520376D01*
X290284Y517692D01*
X286778Y516239D01*
X282982Y516239D01*
G37*
%LPD*%
%LPC*%
G36*
X332982Y516239D02*
X332982Y516239D01*
X329476Y517692D01*
X326792Y520376D01*
X325339Y523882D01*
X325339Y527678D01*
X326792Y531184D01*
X329476Y533868D01*
X332982Y535321D01*
X336778Y535321D01*
X340284Y533868D01*
X342968Y531184D01*
X344421Y527678D01*
X344421Y523882D01*
X342968Y520376D01*
X340284Y517692D01*
X336778Y516239D01*
X332982Y516239D01*
G37*
%LPD*%
%LPC*%
G36*
X1090302Y498459D02*
X1090302Y498459D01*
X1086796Y499912D01*
X1084112Y502596D01*
X1082659Y506102D01*
X1082659Y509898D01*
X1084112Y513404D01*
X1086796Y516088D01*
X1090302Y517541D01*
X1094098Y517541D01*
X1097604Y516088D01*
X1100288Y513404D01*
X1101741Y509898D01*
X1101741Y506102D01*
X1100288Y502596D01*
X1097604Y499912D01*
X1094098Y498459D01*
X1090302Y498459D01*
G37*
%LPD*%
%LPC*%
G36*
X1065302Y498459D02*
X1065302Y498459D01*
X1061796Y499912D01*
X1059112Y502596D01*
X1057659Y506102D01*
X1057659Y509898D01*
X1059112Y513404D01*
X1061796Y516088D01*
X1065302Y517541D01*
X1069098Y517541D01*
X1072604Y516088D01*
X1075288Y513404D01*
X1076741Y509898D01*
X1076741Y506102D01*
X1075288Y502596D01*
X1072604Y499912D01*
X1069098Y498459D01*
X1065302Y498459D01*
G37*
%LPD*%
%LPC*%
G36*
X1115302Y498459D02*
X1115302Y498459D01*
X1111796Y499912D01*
X1109112Y502596D01*
X1107659Y506102D01*
X1107659Y509898D01*
X1109112Y513404D01*
X1111796Y516088D01*
X1115302Y517541D01*
X1119098Y517541D01*
X1122604Y516088D01*
X1125288Y513404D01*
X1126741Y509898D01*
X1126741Y506102D01*
X1125288Y502596D01*
X1122604Y499912D01*
X1119098Y498459D01*
X1115302Y498459D01*
G37*
%LPD*%
%LPC*%
G36*
X836302Y104759D02*
X836302Y104759D01*
X832796Y106212D01*
X830112Y108896D01*
X828659Y112402D01*
X828659Y116198D01*
X830112Y119704D01*
X832796Y122388D01*
X836302Y123841D01*
X840098Y123841D01*
X843604Y122388D01*
X846288Y119704D01*
X847741Y116198D01*
X847741Y112402D01*
X846288Y108896D01*
X843604Y106212D01*
X840098Y104759D01*
X836302Y104759D01*
G37*
%LPD*%
%LPC*%
G36*
X810902Y104759D02*
X810902Y104759D01*
X807396Y106212D01*
X804712Y108896D01*
X803259Y112402D01*
X803259Y116198D01*
X804712Y119704D01*
X807396Y122388D01*
X810902Y123841D01*
X814698Y123841D01*
X818204Y122388D01*
X820888Y119704D01*
X822341Y116198D01*
X822341Y112402D01*
X820888Y108896D01*
X818204Y106212D01*
X814698Y104759D01*
X810902Y104759D01*
G37*
%LPD*%
%LPC*%
G36*
X785502Y104759D02*
X785502Y104759D01*
X781996Y106212D01*
X779312Y108896D01*
X777859Y112402D01*
X777859Y116198D01*
X779312Y119704D01*
X781996Y122388D01*
X785502Y123841D01*
X789298Y123841D01*
X792804Y122388D01*
X795488Y119704D01*
X796941Y116198D01*
X796941Y112402D01*
X795488Y108896D01*
X792804Y106212D01*
X789298Y104759D01*
X785502Y104759D01*
G37*
%LPD*%
%LPC*%
G36*
X760102Y104759D02*
X760102Y104759D01*
X756596Y106212D01*
X753912Y108896D01*
X752459Y112402D01*
X752459Y116198D01*
X753912Y119704D01*
X756596Y122388D01*
X760102Y123841D01*
X763898Y123841D01*
X767404Y122388D01*
X770088Y119704D01*
X771541Y116198D01*
X771541Y112402D01*
X770088Y108896D01*
X767404Y106212D01*
X763898Y104759D01*
X760102Y104759D01*
G37*
%LPD*%
%LPC*%
G36*
X683902Y104759D02*
X683902Y104759D01*
X680396Y106212D01*
X677712Y108896D01*
X676259Y112402D01*
X676259Y116198D01*
X677712Y119704D01*
X680396Y122388D01*
X683902Y123841D01*
X687698Y123841D01*
X691204Y122388D01*
X693888Y119704D01*
X695341Y116198D01*
X695341Y112402D01*
X693888Y108896D01*
X691204Y106212D01*
X687698Y104759D01*
X683902Y104759D01*
G37*
%LPD*%
%LPC*%
G36*
X658502Y104759D02*
X658502Y104759D01*
X654996Y106212D01*
X652312Y108896D01*
X650859Y112402D01*
X650859Y116198D01*
X652312Y119704D01*
X654996Y122388D01*
X658502Y123841D01*
X662298Y123841D01*
X665804Y122388D01*
X668488Y119704D01*
X669941Y116198D01*
X669941Y112402D01*
X668488Y108896D01*
X665804Y106212D01*
X662298Y104759D01*
X658502Y104759D01*
G37*
%LPD*%
%LPC*%
G36*
X633102Y104759D02*
X633102Y104759D01*
X629596Y106212D01*
X626912Y108896D01*
X625459Y112402D01*
X625459Y116198D01*
X626912Y119704D01*
X629596Y122388D01*
X633102Y123841D01*
X636898Y123841D01*
X640404Y122388D01*
X643088Y119704D01*
X644541Y116198D01*
X644541Y112402D01*
X643088Y108896D01*
X640404Y106212D01*
X636898Y104759D01*
X633102Y104759D01*
G37*
%LPD*%
%LPC*%
G36*
X607702Y104759D02*
X607702Y104759D01*
X604196Y106212D01*
X601512Y108896D01*
X600059Y112402D01*
X600059Y116198D01*
X601512Y119704D01*
X604196Y122388D01*
X607702Y123841D01*
X611498Y123841D01*
X615004Y122388D01*
X617688Y119704D01*
X619141Y116198D01*
X619141Y112402D01*
X617688Y108896D01*
X615004Y106212D01*
X611498Y104759D01*
X607702Y104759D01*
G37*
%LPD*%
%LPC*%
G36*
X582302Y104759D02*
X582302Y104759D01*
X578796Y106212D01*
X576112Y108896D01*
X574659Y112402D01*
X574659Y116198D01*
X576112Y119704D01*
X578796Y122388D01*
X582302Y123841D01*
X586098Y123841D01*
X589604Y122388D01*
X592288Y119704D01*
X593741Y116198D01*
X593741Y112402D01*
X592288Y108896D01*
X589604Y106212D01*
X586098Y104759D01*
X582302Y104759D01*
G37*
%LPD*%
%LPC*%
G36*
X556902Y104759D02*
X556902Y104759D01*
X553396Y106212D01*
X550712Y108896D01*
X549259Y112402D01*
X549259Y116198D01*
X550712Y119704D01*
X553396Y122388D01*
X556902Y123841D01*
X560698Y123841D01*
X564204Y122388D01*
X566888Y119704D01*
X568341Y116198D01*
X568341Y112402D01*
X566888Y108896D01*
X564204Y106212D01*
X560698Y104759D01*
X556902Y104759D01*
G37*
%LPD*%
%LPC*%
G36*
X531502Y104759D02*
X531502Y104759D01*
X527996Y106212D01*
X525312Y108896D01*
X523859Y112402D01*
X523859Y116198D01*
X525312Y119704D01*
X527996Y122388D01*
X531502Y123841D01*
X535298Y123841D01*
X538804Y122388D01*
X541488Y119704D01*
X542941Y116198D01*
X542941Y112402D01*
X541488Y108896D01*
X538804Y106212D01*
X535298Y104759D01*
X531502Y104759D01*
G37*
%LPD*%
%LPC*%
G36*
X506102Y104759D02*
X506102Y104759D01*
X502596Y106212D01*
X499912Y108896D01*
X498459Y112402D01*
X498459Y116198D01*
X499912Y119704D01*
X502596Y122388D01*
X506102Y123841D01*
X509898Y123841D01*
X513404Y122388D01*
X516088Y119704D01*
X517541Y116198D01*
X517541Y112402D01*
X516088Y108896D01*
X513404Y106212D01*
X509898Y104759D01*
X506102Y104759D01*
G37*
%LPD*%
%LPC*%
G36*
X480702Y104759D02*
X480702Y104759D01*
X477196Y106212D01*
X474512Y108896D01*
X473059Y112402D01*
X473059Y116198D01*
X474512Y119704D01*
X477196Y122388D01*
X480702Y123841D01*
X484498Y123841D01*
X488004Y122388D01*
X490688Y119704D01*
X492141Y116198D01*
X492141Y112402D01*
X490688Y108896D01*
X488004Y106212D01*
X484498Y104759D01*
X480702Y104759D01*
G37*
%LPD*%
%LPC*%
G36*
X455302Y104759D02*
X455302Y104759D01*
X451796Y106212D01*
X449112Y108896D01*
X447659Y112402D01*
X447659Y116198D01*
X449112Y119704D01*
X451796Y122388D01*
X455302Y123841D01*
X459098Y123841D01*
X462604Y122388D01*
X465288Y119704D01*
X466741Y116198D01*
X466741Y112402D01*
X465288Y108896D01*
X462604Y106212D01*
X459098Y104759D01*
X455302Y104759D01*
G37*
%LPD*%
%LPC*%
G36*
X429902Y104759D02*
X429902Y104759D01*
X426396Y106212D01*
X423712Y108896D01*
X422259Y112402D01*
X422259Y116198D01*
X423712Y119704D01*
X426396Y122388D01*
X429902Y123841D01*
X433698Y123841D01*
X437204Y122388D01*
X439888Y119704D01*
X441341Y116198D01*
X441341Y112402D01*
X439888Y108896D01*
X437204Y106212D01*
X433698Y104759D01*
X429902Y104759D01*
G37*
%LPD*%
%LPC*%
G36*
X861702Y104759D02*
X861702Y104759D01*
X858196Y106212D01*
X855512Y108896D01*
X854059Y112402D01*
X854059Y116198D01*
X855512Y119704D01*
X858196Y122388D01*
X861702Y123841D01*
X865498Y123841D01*
X869004Y122388D01*
X871688Y119704D01*
X873141Y116198D01*
X873141Y112402D01*
X871688Y108896D01*
X869004Y106212D01*
X865498Y104759D01*
X861702Y104759D01*
G37*
%LPD*%
%LPC*%
G36*
X734702Y104759D02*
X734702Y104759D01*
X731196Y106212D01*
X728512Y108896D01*
X727059Y112402D01*
X727059Y116198D01*
X728512Y119704D01*
X731196Y122388D01*
X734702Y123841D01*
X738498Y123841D01*
X742004Y122388D01*
X744688Y119704D01*
X746141Y116198D01*
X746141Y112402D01*
X744688Y108896D01*
X742004Y106212D01*
X738498Y104759D01*
X734702Y104759D01*
G37*
%LPD*%
%LPC*%
G36*
X1039614Y245019D02*
X1039614Y245019D01*
X1036313Y246386D01*
X1033786Y248913D01*
X1032419Y252214D01*
X1032419Y255786D01*
X1033786Y259087D01*
X1036313Y261614D01*
X1039614Y262981D01*
X1043186Y262981D01*
X1046487Y261614D01*
X1049014Y259087D01*
X1050381Y255786D01*
X1050381Y252214D01*
X1049014Y248913D01*
X1046487Y246386D01*
X1043186Y245019D01*
X1039614Y245019D01*
G37*
%LPD*%
%LPC*%
G36*
X82757Y458336D02*
X82757Y458336D01*
X79536Y459670D01*
X77070Y462136D01*
X75736Y465357D01*
X75736Y468843D01*
X77070Y472064D01*
X79536Y474530D01*
X82757Y475864D01*
X86243Y475864D01*
X89464Y474530D01*
X91930Y472064D01*
X93264Y468843D01*
X93264Y465357D01*
X91930Y462136D01*
X89464Y459670D01*
X86243Y458336D01*
X82757Y458336D01*
G37*
%LPD*%
%LPC*%
G36*
X184357Y204336D02*
X184357Y204336D01*
X181136Y205670D01*
X178670Y208136D01*
X177336Y211357D01*
X177336Y214843D01*
X178670Y218064D01*
X181136Y220530D01*
X184357Y221864D01*
X187843Y221864D01*
X191064Y220530D01*
X193530Y218064D01*
X194864Y214843D01*
X194864Y211357D01*
X193530Y208136D01*
X191064Y205670D01*
X187843Y204336D01*
X184357Y204336D01*
G37*
%LPD*%
%LPC*%
G36*
X412957Y458336D02*
X412957Y458336D01*
X409736Y459670D01*
X407270Y462136D01*
X405936Y465357D01*
X405936Y468843D01*
X407270Y472064D01*
X409736Y474530D01*
X412957Y475864D01*
X416443Y475864D01*
X419664Y474530D01*
X422130Y472064D01*
X423464Y468843D01*
X423464Y465357D01*
X422130Y462136D01*
X419664Y459670D01*
X416443Y458336D01*
X412957Y458336D01*
G37*
%LPD*%
%LPC*%
G36*
X387557Y458336D02*
X387557Y458336D01*
X384336Y459670D01*
X381870Y462136D01*
X380536Y465357D01*
X380536Y468843D01*
X381870Y472064D01*
X384336Y474530D01*
X387557Y475864D01*
X391043Y475864D01*
X394264Y474530D01*
X396730Y472064D01*
X398064Y468843D01*
X398064Y465357D01*
X396730Y462136D01*
X394264Y459670D01*
X391043Y458336D01*
X387557Y458336D01*
G37*
%LPD*%
%LPC*%
G36*
X489157Y458336D02*
X489157Y458336D01*
X485936Y459670D01*
X483470Y462136D01*
X482136Y465357D01*
X482136Y468843D01*
X483470Y472064D01*
X485936Y474530D01*
X489157Y475864D01*
X492643Y475864D01*
X495864Y474530D01*
X498330Y472064D01*
X499664Y468843D01*
X499664Y465357D01*
X498330Y462136D01*
X495864Y459670D01*
X492643Y458336D01*
X489157Y458336D01*
G37*
%LPD*%
%LPC*%
G36*
X463757Y458336D02*
X463757Y458336D01*
X460536Y459670D01*
X458070Y462136D01*
X456736Y465357D01*
X456736Y468843D01*
X458070Y472064D01*
X460536Y474530D01*
X463757Y475864D01*
X467243Y475864D01*
X470464Y474530D01*
X472930Y472064D01*
X474264Y468843D01*
X474264Y465357D01*
X472930Y462136D01*
X470464Y459670D01*
X467243Y458336D01*
X463757Y458336D01*
G37*
%LPD*%
%LPC*%
G36*
X438357Y458336D02*
X438357Y458336D01*
X435136Y459670D01*
X432670Y462136D01*
X431336Y465357D01*
X431336Y468843D01*
X432670Y472064D01*
X435136Y474530D01*
X438357Y475864D01*
X441843Y475864D01*
X445064Y474530D01*
X447530Y472064D01*
X448864Y468843D01*
X448864Y465357D01*
X447530Y462136D01*
X445064Y459670D01*
X441843Y458336D01*
X438357Y458336D01*
G37*
%LPD*%
%LPC*%
G36*
X285957Y458336D02*
X285957Y458336D01*
X282736Y459670D01*
X280270Y462136D01*
X278936Y465357D01*
X278936Y468843D01*
X280270Y472064D01*
X282736Y474530D01*
X285957Y475864D01*
X289443Y475864D01*
X292664Y474530D01*
X295130Y472064D01*
X296464Y468843D01*
X296464Y465357D01*
X295130Y462136D01*
X292664Y459670D01*
X289443Y458336D01*
X285957Y458336D01*
G37*
%LPD*%
%LPC*%
G36*
X260557Y458336D02*
X260557Y458336D01*
X257336Y459670D01*
X254870Y462136D01*
X253536Y465357D01*
X253536Y468843D01*
X254870Y472064D01*
X257336Y474530D01*
X260557Y475864D01*
X264043Y475864D01*
X267264Y474530D01*
X269730Y472064D01*
X271064Y468843D01*
X271064Y465357D01*
X269730Y462136D01*
X267264Y459670D01*
X264043Y458336D01*
X260557Y458336D01*
G37*
%LPD*%
%LPC*%
G36*
X362157Y458336D02*
X362157Y458336D01*
X358936Y459670D01*
X356470Y462136D01*
X355136Y465357D01*
X355136Y468843D01*
X356470Y472064D01*
X358936Y474530D01*
X362157Y475864D01*
X365643Y475864D01*
X368864Y474530D01*
X371330Y472064D01*
X372664Y468843D01*
X372664Y465357D01*
X371330Y462136D01*
X368864Y459670D01*
X365643Y458336D01*
X362157Y458336D01*
G37*
%LPD*%
%LPC*%
G36*
X336757Y458336D02*
X336757Y458336D01*
X333536Y459670D01*
X331070Y462136D01*
X329736Y465357D01*
X329736Y468843D01*
X331070Y472064D01*
X333536Y474530D01*
X336757Y475864D01*
X340243Y475864D01*
X343464Y474530D01*
X345930Y472064D01*
X347264Y468843D01*
X347264Y465357D01*
X345930Y462136D01*
X343464Y459670D01*
X340243Y458336D01*
X336757Y458336D01*
G37*
%LPD*%
%LPC*%
G36*
X311357Y458336D02*
X311357Y458336D01*
X308136Y459670D01*
X305670Y462136D01*
X304336Y465357D01*
X304336Y468843D01*
X305670Y472064D01*
X308136Y474530D01*
X311357Y475864D01*
X314843Y475864D01*
X318064Y474530D01*
X320530Y472064D01*
X321864Y468843D01*
X321864Y465357D01*
X320530Y462136D01*
X318064Y459670D01*
X314843Y458336D01*
X311357Y458336D01*
G37*
%LPD*%
%LPC*%
G36*
X438357Y432936D02*
X438357Y432936D01*
X435136Y434270D01*
X432670Y436736D01*
X431336Y439957D01*
X431336Y443443D01*
X432670Y446664D01*
X435136Y449130D01*
X438357Y450464D01*
X441843Y450464D01*
X445064Y449130D01*
X447530Y446664D01*
X448864Y443443D01*
X448864Y439957D01*
X447530Y436736D01*
X445064Y434270D01*
X441843Y432936D01*
X438357Y432936D01*
G37*
%LPD*%
%LPC*%
G36*
X57357Y458336D02*
X57357Y458336D01*
X54136Y459670D01*
X51670Y462136D01*
X50336Y465357D01*
X50336Y468843D01*
X51670Y472064D01*
X54136Y474530D01*
X57357Y475864D01*
X60843Y475864D01*
X64064Y474530D01*
X66530Y472064D01*
X67864Y468843D01*
X67864Y465357D01*
X66530Y462136D01*
X64064Y459670D01*
X60843Y458336D01*
X57357Y458336D01*
G37*
%LPD*%
%LPC*%
G36*
X235157Y458336D02*
X235157Y458336D01*
X231936Y459670D01*
X229470Y462136D01*
X228136Y465357D01*
X228136Y468843D01*
X229470Y472064D01*
X231936Y474530D01*
X235157Y475864D01*
X238643Y475864D01*
X241864Y474530D01*
X244330Y472064D01*
X245664Y468843D01*
X245664Y465357D01*
X244330Y462136D01*
X241864Y459670D01*
X238643Y458336D01*
X235157Y458336D01*
G37*
%LPD*%
%LPC*%
G36*
X209757Y458336D02*
X209757Y458336D01*
X206536Y459670D01*
X204070Y462136D01*
X202736Y465357D01*
X202736Y468843D01*
X204070Y472064D01*
X206536Y474530D01*
X209757Y475864D01*
X213243Y475864D01*
X216464Y474530D01*
X218930Y472064D01*
X220264Y468843D01*
X220264Y465357D01*
X218930Y462136D01*
X216464Y459670D01*
X213243Y458336D01*
X209757Y458336D01*
G37*
%LPD*%
%LPC*%
G36*
X184357Y458336D02*
X184357Y458336D01*
X181136Y459670D01*
X178670Y462136D01*
X177336Y465357D01*
X177336Y468843D01*
X178670Y472064D01*
X181136Y474530D01*
X184357Y475864D01*
X187843Y475864D01*
X191064Y474530D01*
X193530Y472064D01*
X194864Y468843D01*
X194864Y465357D01*
X193530Y462136D01*
X191064Y459670D01*
X187843Y458336D01*
X184357Y458336D01*
G37*
%LPD*%
%LPC*%
G36*
X158957Y458336D02*
X158957Y458336D01*
X155736Y459670D01*
X153270Y462136D01*
X151936Y465357D01*
X151936Y468843D01*
X153270Y472064D01*
X155736Y474530D01*
X158957Y475864D01*
X162443Y475864D01*
X165664Y474530D01*
X168130Y472064D01*
X169464Y468843D01*
X169464Y465357D01*
X168130Y462136D01*
X165664Y459670D01*
X162443Y458336D01*
X158957Y458336D01*
G37*
%LPD*%
%LPC*%
G36*
X133557Y458336D02*
X133557Y458336D01*
X130336Y459670D01*
X127870Y462136D01*
X126536Y465357D01*
X126536Y468843D01*
X127870Y472064D01*
X130336Y474530D01*
X133557Y475864D01*
X137043Y475864D01*
X140264Y474530D01*
X142730Y472064D01*
X144064Y468843D01*
X144064Y465357D01*
X142730Y462136D01*
X140264Y459670D01*
X137043Y458336D01*
X133557Y458336D01*
G37*
%LPD*%
%LPC*%
G36*
X108157Y458336D02*
X108157Y458336D01*
X104936Y459670D01*
X102470Y462136D01*
X101136Y465357D01*
X101136Y468843D01*
X102470Y472064D01*
X104936Y474530D01*
X108157Y475864D01*
X111643Y475864D01*
X114864Y474530D01*
X117330Y472064D01*
X118664Y468843D01*
X118664Y465357D01*
X117330Y462136D01*
X114864Y459670D01*
X111643Y458336D01*
X108157Y458336D01*
G37*
%LPD*%
%LPC*%
G36*
X82757Y432936D02*
X82757Y432936D01*
X79536Y434270D01*
X77070Y436736D01*
X75736Y439957D01*
X75736Y443443D01*
X77070Y446664D01*
X79536Y449130D01*
X82757Y450464D01*
X86243Y450464D01*
X89464Y449130D01*
X91930Y446664D01*
X93264Y443443D01*
X93264Y439957D01*
X91930Y436736D01*
X89464Y434270D01*
X86243Y432936D01*
X82757Y432936D01*
G37*
%LPD*%
%LPC*%
G36*
X57357Y432936D02*
X57357Y432936D01*
X54136Y434270D01*
X51670Y436736D01*
X50336Y439957D01*
X50336Y443443D01*
X51670Y446664D01*
X54136Y449130D01*
X57357Y450464D01*
X60843Y450464D01*
X64064Y449130D01*
X66530Y446664D01*
X67864Y443443D01*
X67864Y439957D01*
X66530Y436736D01*
X64064Y434270D01*
X60843Y432936D01*
X57357Y432936D01*
G37*
%LPD*%
%LPC*%
G36*
X489157Y432936D02*
X489157Y432936D01*
X485936Y434270D01*
X483470Y436736D01*
X482136Y439957D01*
X482136Y443443D01*
X483470Y446664D01*
X485936Y449130D01*
X489157Y450464D01*
X492643Y450464D01*
X495864Y449130D01*
X498330Y446664D01*
X499664Y443443D01*
X499664Y439957D01*
X498330Y436736D01*
X495864Y434270D01*
X492643Y432936D01*
X489157Y432936D01*
G37*
%LPD*%
%LPC*%
G36*
X463757Y432936D02*
X463757Y432936D01*
X460536Y434270D01*
X458070Y436736D01*
X456736Y439957D01*
X456736Y443443D01*
X458070Y446664D01*
X460536Y449130D01*
X463757Y450464D01*
X467243Y450464D01*
X470464Y449130D01*
X472930Y446664D01*
X474264Y443443D01*
X474264Y439957D01*
X472930Y436736D01*
X470464Y434270D01*
X467243Y432936D01*
X463757Y432936D01*
G37*
%LPD*%
%LPC*%
G36*
X285957Y204336D02*
X285957Y204336D01*
X282736Y205670D01*
X280270Y208136D01*
X278936Y211357D01*
X278936Y214843D01*
X280270Y218064D01*
X282736Y220530D01*
X285957Y221864D01*
X289443Y221864D01*
X292664Y220530D01*
X295130Y218064D01*
X296464Y214843D01*
X296464Y211357D01*
X295130Y208136D01*
X292664Y205670D01*
X289443Y204336D01*
X285957Y204336D01*
G37*
%LPD*%
%LPC*%
G36*
X412957Y432936D02*
X412957Y432936D01*
X409736Y434270D01*
X407270Y436736D01*
X405936Y439957D01*
X405936Y443443D01*
X407270Y446664D01*
X409736Y449130D01*
X412957Y450464D01*
X416443Y450464D01*
X419664Y449130D01*
X422130Y446664D01*
X423464Y443443D01*
X423464Y439957D01*
X422130Y436736D01*
X419664Y434270D01*
X416443Y432936D01*
X412957Y432936D01*
G37*
%LPD*%
%LPC*%
G36*
X387557Y432936D02*
X387557Y432936D01*
X384336Y434270D01*
X381870Y436736D01*
X380536Y439957D01*
X380536Y443443D01*
X381870Y446664D01*
X384336Y449130D01*
X387557Y450464D01*
X391043Y450464D01*
X394264Y449130D01*
X396730Y446664D01*
X398064Y443443D01*
X398064Y439957D01*
X396730Y436736D01*
X394264Y434270D01*
X391043Y432936D01*
X387557Y432936D01*
G37*
%LPD*%
%LPC*%
G36*
X362157Y432936D02*
X362157Y432936D01*
X358936Y434270D01*
X356470Y436736D01*
X355136Y439957D01*
X355136Y443443D01*
X356470Y446664D01*
X358936Y449130D01*
X362157Y450464D01*
X365643Y450464D01*
X368864Y449130D01*
X371330Y446664D01*
X372664Y443443D01*
X372664Y439957D01*
X371330Y436736D01*
X368864Y434270D01*
X365643Y432936D01*
X362157Y432936D01*
G37*
%LPD*%
%LPC*%
G36*
X336757Y432936D02*
X336757Y432936D01*
X333536Y434270D01*
X331070Y436736D01*
X329736Y439957D01*
X329736Y443443D01*
X331070Y446664D01*
X333536Y449130D01*
X336757Y450464D01*
X340243Y450464D01*
X343464Y449130D01*
X345930Y446664D01*
X347264Y443443D01*
X347264Y439957D01*
X345930Y436736D01*
X343464Y434270D01*
X340243Y432936D01*
X336757Y432936D01*
G37*
%LPD*%
%LPC*%
G36*
X285957Y432936D02*
X285957Y432936D01*
X282736Y434270D01*
X280270Y436736D01*
X278936Y439957D01*
X278936Y443443D01*
X280270Y446664D01*
X282736Y449130D01*
X285957Y450464D01*
X289443Y450464D01*
X292664Y449130D01*
X295130Y446664D01*
X296464Y443443D01*
X296464Y439957D01*
X295130Y436736D01*
X292664Y434270D01*
X289443Y432936D01*
X285957Y432936D01*
G37*
%LPD*%
%LPC*%
G36*
X260557Y432936D02*
X260557Y432936D01*
X257336Y434270D01*
X254870Y436736D01*
X253536Y439957D01*
X253536Y443443D01*
X254870Y446664D01*
X257336Y449130D01*
X260557Y450464D01*
X264043Y450464D01*
X267264Y449130D01*
X269730Y446664D01*
X271064Y443443D01*
X271064Y439957D01*
X269730Y436736D01*
X267264Y434270D01*
X264043Y432936D01*
X260557Y432936D01*
G37*
%LPD*%
%LPC*%
G36*
X209757Y432936D02*
X209757Y432936D01*
X206536Y434270D01*
X204070Y436736D01*
X202736Y439957D01*
X202736Y443443D01*
X204070Y446664D01*
X206536Y449130D01*
X209757Y450464D01*
X213243Y450464D01*
X216464Y449130D01*
X218930Y446664D01*
X220264Y443443D01*
X220264Y439957D01*
X218930Y436736D01*
X216464Y434270D01*
X213243Y432936D01*
X209757Y432936D01*
G37*
%LPD*%
%LPC*%
G36*
X184357Y432936D02*
X184357Y432936D01*
X181136Y434270D01*
X178670Y436736D01*
X177336Y439957D01*
X177336Y443443D01*
X178670Y446664D01*
X181136Y449130D01*
X184357Y450464D01*
X187843Y450464D01*
X191064Y449130D01*
X193530Y446664D01*
X194864Y443443D01*
X194864Y439957D01*
X193530Y436736D01*
X191064Y434270D01*
X187843Y432936D01*
X184357Y432936D01*
G37*
%LPD*%
%LPC*%
G36*
X158957Y432936D02*
X158957Y432936D01*
X155736Y434270D01*
X153270Y436736D01*
X151936Y439957D01*
X151936Y443443D01*
X153270Y446664D01*
X155736Y449130D01*
X158957Y450464D01*
X162443Y450464D01*
X165664Y449130D01*
X168130Y446664D01*
X169464Y443443D01*
X169464Y439957D01*
X168130Y436736D01*
X165664Y434270D01*
X162443Y432936D01*
X158957Y432936D01*
G37*
%LPD*%
%LPC*%
G36*
X133557Y432936D02*
X133557Y432936D01*
X130336Y434270D01*
X127870Y436736D01*
X126536Y439957D01*
X126536Y443443D01*
X127870Y446664D01*
X130336Y449130D01*
X133557Y450464D01*
X137043Y450464D01*
X140264Y449130D01*
X142730Y446664D01*
X144064Y443443D01*
X144064Y439957D01*
X142730Y436736D01*
X140264Y434270D01*
X137043Y432936D01*
X133557Y432936D01*
G37*
%LPD*%
%LPC*%
G36*
X108157Y432936D02*
X108157Y432936D01*
X104936Y434270D01*
X102470Y436736D01*
X101136Y439957D01*
X101136Y443443D01*
X102470Y446664D01*
X104936Y449130D01*
X108157Y450464D01*
X111643Y450464D01*
X114864Y449130D01*
X117330Y446664D01*
X118664Y443443D01*
X118664Y439957D01*
X117330Y436736D01*
X114864Y434270D01*
X111643Y432936D01*
X108157Y432936D01*
G37*
%LPD*%
%LPC*%
G36*
X336757Y204336D02*
X336757Y204336D01*
X333536Y205670D01*
X331070Y208136D01*
X329736Y211357D01*
X329736Y214843D01*
X331070Y218064D01*
X333536Y220530D01*
X336757Y221864D01*
X340243Y221864D01*
X343464Y220530D01*
X345930Y218064D01*
X347264Y214843D01*
X347264Y211357D01*
X345930Y208136D01*
X343464Y205670D01*
X340243Y204336D01*
X336757Y204336D01*
G37*
%LPD*%
%LPC*%
G36*
X209757Y204336D02*
X209757Y204336D01*
X206536Y205670D01*
X204070Y208136D01*
X202736Y211357D01*
X202736Y214843D01*
X204070Y218064D01*
X206536Y220530D01*
X209757Y221864D01*
X213243Y221864D01*
X216464Y220530D01*
X218930Y218064D01*
X220264Y214843D01*
X220264Y211357D01*
X218930Y208136D01*
X216464Y205670D01*
X213243Y204336D01*
X209757Y204336D01*
G37*
%LPD*%
%LPC*%
G36*
X336757Y178936D02*
X336757Y178936D01*
X333536Y180270D01*
X331070Y182736D01*
X329736Y185957D01*
X329736Y189443D01*
X331070Y192664D01*
X333536Y195130D01*
X336757Y196464D01*
X340243Y196464D01*
X343464Y195130D01*
X345930Y192664D01*
X347264Y189443D01*
X347264Y185957D01*
X345930Y182736D01*
X343464Y180270D01*
X340243Y178936D01*
X336757Y178936D01*
G37*
%LPD*%
%LPC*%
G36*
X158957Y204336D02*
X158957Y204336D01*
X155736Y205670D01*
X153270Y208136D01*
X151936Y211357D01*
X151936Y214843D01*
X153270Y218064D01*
X155736Y220530D01*
X158957Y221864D01*
X162443Y221864D01*
X165664Y220530D01*
X168130Y218064D01*
X169464Y214843D01*
X169464Y211357D01*
X168130Y208136D01*
X165664Y205670D01*
X162443Y204336D01*
X158957Y204336D01*
G37*
%LPD*%
%LPC*%
G36*
X133557Y204336D02*
X133557Y204336D01*
X130336Y205670D01*
X127870Y208136D01*
X126536Y211357D01*
X126536Y214843D01*
X127870Y218064D01*
X130336Y220530D01*
X133557Y221864D01*
X137043Y221864D01*
X140264Y220530D01*
X142730Y218064D01*
X144064Y214843D01*
X144064Y211357D01*
X142730Y208136D01*
X140264Y205670D01*
X137043Y204336D01*
X133557Y204336D01*
G37*
%LPD*%
%LPC*%
G36*
X108157Y204336D02*
X108157Y204336D01*
X104936Y205670D01*
X102470Y208136D01*
X101136Y211357D01*
X101136Y214843D01*
X102470Y218064D01*
X104936Y220530D01*
X108157Y221864D01*
X111643Y221864D01*
X114864Y220530D01*
X117330Y218064D01*
X118664Y214843D01*
X118664Y211357D01*
X117330Y208136D01*
X114864Y205670D01*
X111643Y204336D01*
X108157Y204336D01*
G37*
%LPD*%
%LPC*%
G36*
X82757Y204336D02*
X82757Y204336D01*
X79536Y205670D01*
X77070Y208136D01*
X75736Y211357D01*
X75736Y214843D01*
X77070Y218064D01*
X79536Y220530D01*
X82757Y221864D01*
X86243Y221864D01*
X89464Y220530D01*
X91930Y218064D01*
X93264Y214843D01*
X93264Y211357D01*
X91930Y208136D01*
X89464Y205670D01*
X86243Y204336D01*
X82757Y204336D01*
G37*
%LPD*%
%LPC*%
G36*
X57357Y204336D02*
X57357Y204336D01*
X54136Y205670D01*
X51670Y208136D01*
X50336Y211357D01*
X50336Y214843D01*
X51670Y218064D01*
X54136Y220530D01*
X57357Y221864D01*
X60843Y221864D01*
X64064Y220530D01*
X66530Y218064D01*
X67864Y214843D01*
X67864Y211357D01*
X66530Y208136D01*
X64064Y205670D01*
X60843Y204336D01*
X57357Y204336D01*
G37*
%LPD*%
%LPC*%
G36*
X489157Y204336D02*
X489157Y204336D01*
X485936Y205670D01*
X483470Y208136D01*
X482136Y211357D01*
X482136Y214843D01*
X483470Y218064D01*
X485936Y220530D01*
X489157Y221864D01*
X492643Y221864D01*
X495864Y220530D01*
X498330Y218064D01*
X499664Y214843D01*
X499664Y211357D01*
X498330Y208136D01*
X495864Y205670D01*
X492643Y204336D01*
X489157Y204336D01*
G37*
%LPD*%
%LPC*%
G36*
X463757Y204336D02*
X463757Y204336D01*
X460536Y205670D01*
X458070Y208136D01*
X456736Y211357D01*
X456736Y214843D01*
X458070Y218064D01*
X460536Y220530D01*
X463757Y221864D01*
X467243Y221864D01*
X470464Y220530D01*
X472930Y218064D01*
X474264Y214843D01*
X474264Y211357D01*
X472930Y208136D01*
X470464Y205670D01*
X467243Y204336D01*
X463757Y204336D01*
G37*
%LPD*%
%LPC*%
G36*
X438357Y204336D02*
X438357Y204336D01*
X435136Y205670D01*
X432670Y208136D01*
X431336Y211357D01*
X431336Y214843D01*
X432670Y218064D01*
X435136Y220530D01*
X438357Y221864D01*
X441843Y221864D01*
X445064Y220530D01*
X447530Y218064D01*
X448864Y214843D01*
X448864Y211357D01*
X447530Y208136D01*
X445064Y205670D01*
X441843Y204336D01*
X438357Y204336D01*
G37*
%LPD*%
%LPC*%
G36*
X412957Y204336D02*
X412957Y204336D01*
X409736Y205670D01*
X407270Y208136D01*
X405936Y211357D01*
X405936Y214843D01*
X407270Y218064D01*
X409736Y220530D01*
X412957Y221864D01*
X416443Y221864D01*
X419664Y220530D01*
X422130Y218064D01*
X423464Y214843D01*
X423464Y211357D01*
X422130Y208136D01*
X419664Y205670D01*
X416443Y204336D01*
X412957Y204336D01*
G37*
%LPD*%
%LPC*%
G36*
X387557Y204336D02*
X387557Y204336D01*
X384336Y205670D01*
X381870Y208136D01*
X380536Y211357D01*
X380536Y214843D01*
X381870Y218064D01*
X384336Y220530D01*
X387557Y221864D01*
X391043Y221864D01*
X394264Y220530D01*
X396730Y218064D01*
X398064Y214843D01*
X398064Y211357D01*
X396730Y208136D01*
X394264Y205670D01*
X391043Y204336D01*
X387557Y204336D01*
G37*
%LPD*%
%LPC*%
G36*
X362157Y204336D02*
X362157Y204336D01*
X358936Y205670D01*
X356470Y208136D01*
X355136Y211357D01*
X355136Y214843D01*
X356470Y218064D01*
X358936Y220530D01*
X362157Y221864D01*
X365643Y221864D01*
X368864Y220530D01*
X371330Y218064D01*
X372664Y214843D01*
X372664Y211357D01*
X371330Y208136D01*
X368864Y205670D01*
X365643Y204336D01*
X362157Y204336D01*
G37*
%LPD*%
%LPC*%
G36*
X260557Y178936D02*
X260557Y178936D01*
X257336Y180270D01*
X254870Y182736D01*
X253536Y185957D01*
X253536Y189443D01*
X254870Y192664D01*
X257336Y195130D01*
X260557Y196464D01*
X264043Y196464D01*
X267264Y195130D01*
X269730Y192664D01*
X271064Y189443D01*
X271064Y185957D01*
X269730Y182736D01*
X267264Y180270D01*
X264043Y178936D01*
X260557Y178936D01*
G37*
%LPD*%
%LPC*%
G36*
X82757Y178936D02*
X82757Y178936D01*
X79536Y180270D01*
X77070Y182736D01*
X75736Y185957D01*
X75736Y189443D01*
X77070Y192664D01*
X79536Y195130D01*
X82757Y196464D01*
X86243Y196464D01*
X89464Y195130D01*
X91930Y192664D01*
X93264Y189443D01*
X93264Y185957D01*
X91930Y182736D01*
X89464Y180270D01*
X86243Y178936D01*
X82757Y178936D01*
G37*
%LPD*%
%LPC*%
G36*
X57357Y178936D02*
X57357Y178936D01*
X54136Y180270D01*
X51670Y182736D01*
X50336Y185957D01*
X50336Y189443D01*
X51670Y192664D01*
X54136Y195130D01*
X57357Y196464D01*
X60843Y196464D01*
X64064Y195130D01*
X66530Y192664D01*
X67864Y189443D01*
X67864Y185957D01*
X66530Y182736D01*
X64064Y180270D01*
X60843Y178936D01*
X57357Y178936D01*
G37*
%LPD*%
%LPC*%
G36*
X489157Y178936D02*
X489157Y178936D01*
X485936Y180270D01*
X483470Y182736D01*
X482136Y185957D01*
X482136Y189443D01*
X483470Y192664D01*
X485936Y195130D01*
X489157Y196464D01*
X492643Y196464D01*
X495864Y195130D01*
X498330Y192664D01*
X499664Y189443D01*
X499664Y185957D01*
X498330Y182736D01*
X495864Y180270D01*
X492643Y178936D01*
X489157Y178936D01*
G37*
%LPD*%
%LPC*%
G36*
X463757Y178936D02*
X463757Y178936D01*
X460536Y180270D01*
X458070Y182736D01*
X456736Y185957D01*
X456736Y189443D01*
X458070Y192664D01*
X460536Y195130D01*
X463757Y196464D01*
X467243Y196464D01*
X470464Y195130D01*
X472930Y192664D01*
X474264Y189443D01*
X474264Y185957D01*
X472930Y182736D01*
X470464Y180270D01*
X467243Y178936D01*
X463757Y178936D01*
G37*
%LPD*%
%LPC*%
G36*
X438357Y178936D02*
X438357Y178936D01*
X435136Y180270D01*
X432670Y182736D01*
X431336Y185957D01*
X431336Y189443D01*
X432670Y192664D01*
X435136Y195130D01*
X438357Y196464D01*
X441843Y196464D01*
X445064Y195130D01*
X447530Y192664D01*
X448864Y189443D01*
X448864Y185957D01*
X447530Y182736D01*
X445064Y180270D01*
X441843Y178936D01*
X438357Y178936D01*
G37*
%LPD*%
%LPC*%
G36*
X412957Y178936D02*
X412957Y178936D01*
X409736Y180270D01*
X407270Y182736D01*
X405936Y185957D01*
X405936Y189443D01*
X407270Y192664D01*
X409736Y195130D01*
X412957Y196464D01*
X416443Y196464D01*
X419664Y195130D01*
X422130Y192664D01*
X423464Y189443D01*
X423464Y185957D01*
X422130Y182736D01*
X419664Y180270D01*
X416443Y178936D01*
X412957Y178936D01*
G37*
%LPD*%
%LPC*%
G36*
X387557Y178936D02*
X387557Y178936D01*
X384336Y180270D01*
X381870Y182736D01*
X380536Y185957D01*
X380536Y189443D01*
X381870Y192664D01*
X384336Y195130D01*
X387557Y196464D01*
X391043Y196464D01*
X394264Y195130D01*
X396730Y192664D01*
X398064Y189443D01*
X398064Y185957D01*
X396730Y182736D01*
X394264Y180270D01*
X391043Y178936D01*
X387557Y178936D01*
G37*
%LPD*%
%LPC*%
G36*
X362157Y178936D02*
X362157Y178936D01*
X358936Y180270D01*
X356470Y182736D01*
X355136Y185957D01*
X355136Y189443D01*
X356470Y192664D01*
X358936Y195130D01*
X362157Y196464D01*
X365643Y196464D01*
X368864Y195130D01*
X371330Y192664D01*
X372664Y189443D01*
X372664Y185957D01*
X371330Y182736D01*
X368864Y180270D01*
X365643Y178936D01*
X362157Y178936D01*
G37*
%LPD*%
%LPC*%
G36*
X311357Y178936D02*
X311357Y178936D01*
X308136Y180270D01*
X305670Y182736D01*
X304336Y185957D01*
X304336Y189443D01*
X305670Y192664D01*
X308136Y195130D01*
X311357Y196464D01*
X314843Y196464D01*
X318064Y195130D01*
X320530Y192664D01*
X321864Y189443D01*
X321864Y185957D01*
X320530Y182736D01*
X318064Y180270D01*
X314843Y178936D01*
X311357Y178936D01*
G37*
%LPD*%
%LPC*%
G36*
X285957Y178936D02*
X285957Y178936D01*
X282736Y180270D01*
X280270Y182736D01*
X278936Y185957D01*
X278936Y189443D01*
X280270Y192664D01*
X282736Y195130D01*
X285957Y196464D01*
X289443Y196464D01*
X292664Y195130D01*
X295130Y192664D01*
X296464Y189443D01*
X296464Y185957D01*
X295130Y182736D01*
X292664Y180270D01*
X289443Y178936D01*
X285957Y178936D01*
G37*
%LPD*%
%LPC*%
G36*
X184357Y178936D02*
X184357Y178936D01*
X181136Y180270D01*
X178670Y182736D01*
X177336Y185957D01*
X177336Y189443D01*
X178670Y192664D01*
X181136Y195130D01*
X184357Y196464D01*
X187843Y196464D01*
X191064Y195130D01*
X193530Y192664D01*
X194864Y189443D01*
X194864Y185957D01*
X193530Y182736D01*
X191064Y180270D01*
X187843Y178936D01*
X184357Y178936D01*
G37*
%LPD*%
%LPC*%
G36*
X158957Y178936D02*
X158957Y178936D01*
X155736Y180270D01*
X153270Y182736D01*
X151936Y185957D01*
X151936Y189443D01*
X153270Y192664D01*
X155736Y195130D01*
X158957Y196464D01*
X162443Y196464D01*
X165664Y195130D01*
X168130Y192664D01*
X169464Y189443D01*
X169464Y185957D01*
X168130Y182736D01*
X165664Y180270D01*
X162443Y178936D01*
X158957Y178936D01*
G37*
%LPD*%
%LPC*%
G36*
X133557Y178936D02*
X133557Y178936D01*
X130336Y180270D01*
X127870Y182736D01*
X126536Y185957D01*
X126536Y189443D01*
X127870Y192664D01*
X130336Y195130D01*
X133557Y196464D01*
X137043Y196464D01*
X140264Y195130D01*
X142730Y192664D01*
X144064Y189443D01*
X144064Y185957D01*
X142730Y182736D01*
X140264Y180270D01*
X137043Y178936D01*
X133557Y178936D01*
G37*
%LPD*%
%LPC*%
G36*
X108157Y178936D02*
X108157Y178936D01*
X104936Y180270D01*
X102470Y182736D01*
X101136Y185957D01*
X101136Y189443D01*
X102470Y192664D01*
X104936Y195130D01*
X108157Y196464D01*
X111643Y196464D01*
X114864Y195130D01*
X117330Y192664D01*
X118664Y189443D01*
X118664Y185957D01*
X117330Y182736D01*
X114864Y180270D01*
X111643Y178936D01*
X108157Y178936D01*
G37*
%LPD*%
%LPC*%
G36*
X260557Y204336D02*
X260557Y204336D01*
X257336Y205670D01*
X254870Y208136D01*
X253536Y211357D01*
X253536Y214843D01*
X254870Y218064D01*
X257336Y220530D01*
X260557Y221864D01*
X264043Y221864D01*
X267264Y220530D01*
X269730Y218064D01*
X271064Y214843D01*
X271064Y211357D01*
X269730Y208136D01*
X267264Y205670D01*
X264043Y204336D01*
X260557Y204336D01*
G37*
%LPD*%
%LPC*%
G36*
X31908Y731011D02*
X31908Y731011D01*
X29854Y731862D01*
X28282Y733434D01*
X27431Y735488D01*
X27431Y737712D01*
X28282Y739766D01*
X29854Y741338D01*
X31908Y742189D01*
X34132Y742189D01*
X36186Y741338D01*
X37758Y739766D01*
X38609Y737712D01*
X38609Y735488D01*
X37758Y733434D01*
X36186Y731862D01*
X34132Y731011D01*
X31908Y731011D01*
G37*
%LPD*%
%LPC*%
G36*
X29368Y858011D02*
X29368Y858011D01*
X27314Y858862D01*
X25742Y860434D01*
X24891Y862488D01*
X24891Y864712D01*
X25742Y866766D01*
X27314Y868338D01*
X29368Y869189D01*
X31592Y869189D01*
X33646Y868338D01*
X35218Y866766D01*
X36069Y864712D01*
X36069Y862488D01*
X35218Y860434D01*
X33646Y858862D01*
X31592Y858011D01*
X29368Y858011D01*
G37*
%LPD*%
%LPC*%
G36*
X1213008Y273811D02*
X1213008Y273811D01*
X1210954Y274662D01*
X1209382Y276234D01*
X1208531Y278288D01*
X1208531Y280512D01*
X1209382Y282566D01*
X1210954Y284138D01*
X1213008Y284989D01*
X1215232Y284989D01*
X1217286Y284138D01*
X1218858Y282566D01*
X1219709Y280512D01*
X1219709Y278288D01*
X1218858Y276234D01*
X1217286Y274662D01*
X1215232Y273811D01*
X1213008Y273811D01*
G37*
%LPD*%
%LPC*%
G36*
X969168Y220471D02*
X969168Y220471D01*
X967114Y221322D01*
X965542Y222894D01*
X964691Y224948D01*
X964691Y227172D01*
X965542Y229226D01*
X967114Y230798D01*
X969168Y231649D01*
X971392Y231649D01*
X973446Y230798D01*
X975018Y229226D01*
X975869Y227172D01*
X975869Y224948D01*
X975018Y222894D01*
X973446Y221322D01*
X971392Y220471D01*
X969168Y220471D01*
G37*
%LPD*%
%LPC*%
G36*
X408899Y116799D02*
X408899Y116799D01*
X408899Y123520D01*
X410062Y123142D01*
X411401Y122460D01*
X412615Y121577D01*
X413677Y120515D01*
X414560Y119301D01*
X415242Y117962D01*
X415620Y116799D01*
X408899Y116799D01*
G37*
%LPD*%
%LPC*%
G36*
X397180Y116799D02*
X397180Y116799D01*
X397558Y117962D01*
X398240Y119301D01*
X399123Y120515D01*
X400185Y121577D01*
X401399Y122460D01*
X402738Y123142D01*
X403901Y123520D01*
X403901Y116799D01*
X397180Y116799D01*
G37*
%LPD*%
%LPC*%
G36*
X408899Y111801D02*
X408899Y111801D01*
X415620Y111801D01*
X415242Y110638D01*
X414560Y109299D01*
X413677Y108085D01*
X412615Y107023D01*
X411401Y106140D01*
X410062Y105458D01*
X408899Y105080D01*
X408899Y111801D01*
G37*
%LPD*%
%LPC*%
G36*
X402738Y105458D02*
X402738Y105458D01*
X401399Y106140D01*
X400185Y107023D01*
X399123Y108085D01*
X398240Y109299D01*
X397558Y110638D01*
X397180Y111801D01*
X403901Y111801D01*
X403901Y105080D01*
X402738Y105458D01*
G37*
%LPD*%
%LPC*%
G36*
X1113699Y256299D02*
X1113699Y256299D01*
X1113699Y262699D01*
X1114020Y262636D01*
X1115654Y261959D01*
X1117125Y260976D01*
X1118376Y259725D01*
X1119359Y258254D01*
X1120036Y256620D01*
X1120099Y256299D01*
X1113699Y256299D01*
G37*
%LPD*%
%LPC*%
G36*
X1102701Y256299D02*
X1102701Y256299D01*
X1102764Y256620D01*
X1103441Y258254D01*
X1104424Y259725D01*
X1105675Y260976D01*
X1107146Y261959D01*
X1108780Y262636D01*
X1109101Y262699D01*
X1109101Y256299D01*
X1102701Y256299D01*
G37*
%LPD*%
%LPC*%
G36*
X1113699Y251701D02*
X1113699Y251701D01*
X1120099Y251701D01*
X1120036Y251380D01*
X1119359Y249746D01*
X1118376Y248275D01*
X1117125Y247024D01*
X1115654Y246041D01*
X1114020Y245364D01*
X1113699Y245301D01*
X1113699Y251701D01*
G37*
%LPD*%
%LPC*%
G36*
X1108780Y245364D02*
X1108780Y245364D01*
X1107146Y246041D01*
X1105675Y247024D01*
X1104424Y248275D01*
X1103441Y249746D01*
X1102764Y251380D01*
X1102701Y251701D01*
X1109101Y251701D01*
X1109101Y245301D01*
X1108780Y245364D01*
G37*
%LPD*%
%LPC*%
G36*
X239122Y215322D02*
X239122Y215322D01*
X239122Y221593D01*
X239456Y221527D01*
X241051Y220866D01*
X242487Y219907D01*
X243707Y218687D01*
X244666Y217251D01*
X245327Y215656D01*
X245393Y215322D01*
X239122Y215322D01*
G37*
%LPD*%
%LPC*%
G36*
X315322Y215322D02*
X315322Y215322D01*
X315322Y221593D01*
X315656Y221527D01*
X317251Y220866D01*
X318687Y219907D01*
X319907Y218687D01*
X320866Y217251D01*
X321527Y215656D01*
X321593Y215322D01*
X315322Y215322D01*
G37*
%LPD*%
%LPC*%
G36*
X239122Y443922D02*
X239122Y443922D01*
X239122Y450193D01*
X239456Y450127D01*
X241051Y449466D01*
X242487Y448507D01*
X243707Y447287D01*
X244666Y445851D01*
X245327Y444256D01*
X245393Y443922D01*
X239122Y443922D01*
G37*
%LPD*%
%LPC*%
G36*
X315322Y443922D02*
X315322Y443922D01*
X315322Y450193D01*
X315656Y450127D01*
X317251Y449466D01*
X318687Y448507D01*
X319907Y447287D01*
X320866Y445851D01*
X321527Y444256D01*
X321593Y443922D01*
X315322Y443922D01*
G37*
%LPD*%
%LPC*%
G36*
X213722Y189922D02*
X213722Y189922D01*
X213722Y196193D01*
X214056Y196127D01*
X215651Y195466D01*
X217087Y194507D01*
X218307Y193287D01*
X219266Y191851D01*
X219927Y190256D01*
X219993Y189922D01*
X213722Y189922D01*
G37*
%LPD*%
%LPC*%
G36*
X239122Y189922D02*
X239122Y189922D01*
X239122Y196193D01*
X239456Y196127D01*
X241051Y195466D01*
X242487Y194507D01*
X243707Y193287D01*
X244666Y191851D01*
X245327Y190256D01*
X245393Y189922D01*
X239122Y189922D01*
G37*
%LPD*%
%LPC*%
G36*
X228407Y215322D02*
X228407Y215322D01*
X228473Y215656D01*
X229134Y217251D01*
X230093Y218687D01*
X231313Y219907D01*
X232749Y220866D01*
X234344Y221527D01*
X234678Y221593D01*
X234678Y215322D01*
X228407Y215322D01*
G37*
%LPD*%
%LPC*%
G36*
X304607Y215322D02*
X304607Y215322D01*
X304673Y215656D01*
X305334Y217251D01*
X306293Y218687D01*
X307513Y219907D01*
X308949Y220866D01*
X310544Y221527D01*
X310878Y221593D01*
X310878Y215322D01*
X304607Y215322D01*
G37*
%LPD*%
%LPC*%
G36*
X239122Y210878D02*
X239122Y210878D01*
X245393Y210878D01*
X245327Y210544D01*
X244666Y208949D01*
X243707Y207513D01*
X242487Y206293D01*
X241051Y205334D01*
X239456Y204673D01*
X239122Y204607D01*
X239122Y210878D01*
G37*
%LPD*%
%LPC*%
G36*
X304607Y443922D02*
X304607Y443922D01*
X304673Y444256D01*
X305334Y445851D01*
X306293Y447287D01*
X307513Y448507D01*
X308949Y449466D01*
X310544Y450127D01*
X310878Y450193D01*
X310878Y443922D01*
X304607Y443922D01*
G37*
%LPD*%
%LPC*%
G36*
X315322Y439478D02*
X315322Y439478D01*
X321593Y439478D01*
X321527Y439144D01*
X320866Y437549D01*
X319907Y436113D01*
X318687Y434893D01*
X317251Y433934D01*
X315656Y433273D01*
X315322Y433207D01*
X315322Y439478D01*
G37*
%LPD*%
%LPC*%
G36*
X315322Y210878D02*
X315322Y210878D01*
X321593Y210878D01*
X321527Y210544D01*
X320866Y208949D01*
X319907Y207513D01*
X318687Y206293D01*
X317251Y205334D01*
X315656Y204673D01*
X315322Y204607D01*
X315322Y210878D01*
G37*
%LPD*%
%LPC*%
G36*
X239122Y439478D02*
X239122Y439478D01*
X245393Y439478D01*
X245327Y439144D01*
X244666Y437549D01*
X243707Y436113D01*
X242487Y434893D01*
X241051Y433934D01*
X239456Y433273D01*
X239122Y433207D01*
X239122Y439478D01*
G37*
%LPD*%
%LPC*%
G36*
X203007Y189922D02*
X203007Y189922D01*
X203073Y190256D01*
X203734Y191851D01*
X204693Y193287D01*
X205913Y194507D01*
X207349Y195466D01*
X208944Y196127D01*
X209278Y196193D01*
X209278Y189922D01*
X203007Y189922D01*
G37*
%LPD*%
%LPC*%
G36*
X228407Y189922D02*
X228407Y189922D01*
X228473Y190256D01*
X229134Y191851D01*
X230093Y193287D01*
X231313Y194507D01*
X232749Y195466D01*
X234344Y196127D01*
X234678Y196193D01*
X234678Y189922D01*
X228407Y189922D01*
G37*
%LPD*%
%LPC*%
G36*
X239122Y185478D02*
X239122Y185478D01*
X245393Y185478D01*
X245327Y185144D01*
X244666Y183549D01*
X243707Y182113D01*
X242487Y180893D01*
X241051Y179934D01*
X239456Y179273D01*
X239122Y179207D01*
X239122Y185478D01*
G37*
%LPD*%
%LPC*%
G36*
X213722Y185478D02*
X213722Y185478D01*
X219993Y185478D01*
X219927Y185144D01*
X219266Y183549D01*
X218307Y182113D01*
X217087Y180893D01*
X215651Y179934D01*
X214056Y179273D01*
X213722Y179207D01*
X213722Y185478D01*
G37*
%LPD*%
%LPC*%
G36*
X228407Y443922D02*
X228407Y443922D01*
X228473Y444256D01*
X229134Y445851D01*
X230093Y447287D01*
X231313Y448507D01*
X232749Y449466D01*
X234344Y450127D01*
X234678Y450193D01*
X234678Y443922D01*
X228407Y443922D01*
G37*
%LPD*%
%LPC*%
G36*
X310544Y433273D02*
X310544Y433273D01*
X308949Y433934D01*
X307513Y434893D01*
X306293Y436113D01*
X305334Y437549D01*
X304673Y439144D01*
X304607Y439478D01*
X310878Y439478D01*
X310878Y433207D01*
X310544Y433273D01*
G37*
%LPD*%
%LPC*%
G36*
X234344Y204673D02*
X234344Y204673D01*
X232749Y205334D01*
X231313Y206293D01*
X230093Y207513D01*
X229134Y208949D01*
X228473Y210544D01*
X228407Y210878D01*
X234678Y210878D01*
X234678Y204607D01*
X234344Y204673D01*
G37*
%LPD*%
%LPC*%
G36*
X310544Y204673D02*
X310544Y204673D01*
X308949Y205334D01*
X307513Y206293D01*
X306293Y207513D01*
X305334Y208949D01*
X304673Y210544D01*
X304607Y210878D01*
X310878Y210878D01*
X310878Y204607D01*
X310544Y204673D01*
G37*
%LPD*%
%LPC*%
G36*
X234344Y433273D02*
X234344Y433273D01*
X232749Y433934D01*
X231313Y434893D01*
X230093Y436113D01*
X229134Y437549D01*
X228473Y439144D01*
X228407Y439478D01*
X234678Y439478D01*
X234678Y433207D01*
X234344Y433273D01*
G37*
%LPD*%
%LPC*%
G36*
X234344Y179273D02*
X234344Y179273D01*
X232749Y179934D01*
X231313Y180893D01*
X230093Y182113D01*
X229134Y183549D01*
X228473Y185144D01*
X228407Y185478D01*
X234678Y185478D01*
X234678Y179207D01*
X234344Y179273D01*
G37*
%LPD*%
%LPC*%
G36*
X208944Y179273D02*
X208944Y179273D01*
X207349Y179934D01*
X205913Y180893D01*
X204693Y182113D01*
X203734Y183549D01*
X203073Y185144D01*
X203007Y185478D01*
X209278Y185478D01*
X209278Y179207D01*
X208944Y179273D01*
G37*
%LPD*%
D10*
X406400Y876300D03*
X431800Y876300D03*
X457200Y876300D03*
X482600Y876300D03*
X508000Y876300D03*
X533400Y876300D03*
X558800Y876300D03*
X584200Y876300D03*
X609600Y876300D03*
X635000Y876300D03*
X660400Y876300D03*
X685800Y876300D03*
X711200Y876300D03*
X736600Y876300D03*
X762000Y876300D03*
X787400Y876300D03*
X812800Y876300D03*
X838200Y876300D03*
X863600Y876300D03*
X889000Y876300D03*
X406400Y114300D03*
X431800Y114300D03*
X457200Y114300D03*
X482600Y114300D03*
X508000Y114300D03*
X533400Y114300D03*
X558800Y114300D03*
X584200Y114300D03*
X609600Y114300D03*
X635000Y114300D03*
X660400Y114300D03*
X685800Y114300D03*
X711200Y114300D03*
X736600Y114300D03*
X762000Y114300D03*
X787400Y114300D03*
X812800Y114300D03*
X838200Y114300D03*
X863600Y114300D03*
X889000Y114300D03*
D11*
X361950Y114300D03*
X933450Y114300D03*
X361950Y876300D03*
X933450Y876300D03*
D12*
X1041400Y254000D03*
X1066400Y254000D03*
X1086400Y254000D03*
X1111400Y254000D03*
D13*
X1010700Y226900D03*
X1142100Y226900D03*
D14*
X50800Y965200D03*
X1219200Y965200D03*
X1219200Y50800D03*
X50800Y50800D03*
D10*
X1067200Y508000D03*
X1092200Y508000D03*
X1117200Y508000D03*
X284880Y525780D03*
X309880Y525780D03*
X334880Y525780D03*
D15*
X214900Y761600D03*
X214900Y711600D03*
X89900Y711600D03*
X89900Y761600D03*
X214900Y914000D03*
X214900Y864000D03*
X89900Y864000D03*
X89900Y914000D03*
D16*
X59100Y187700D03*
X59100Y213100D03*
X84500Y187700D03*
X84500Y213100D03*
X109900Y187700D03*
X109900Y213100D03*
X135300Y187700D03*
X135300Y213100D03*
X160700Y187700D03*
X160700Y213100D03*
X186100Y187700D03*
X186100Y213100D03*
X211500Y187700D03*
X211500Y213100D03*
X236900Y187700D03*
X236900Y213100D03*
X262300Y187700D03*
X262300Y213100D03*
X287700Y187700D03*
X287700Y213100D03*
X313100Y187700D03*
X313100Y213100D03*
X338500Y187700D03*
X338500Y213100D03*
X363900Y187700D03*
X363900Y213100D03*
X389300Y187700D03*
X389300Y213100D03*
X414700Y187700D03*
X414700Y213100D03*
X440100Y187700D03*
X440100Y213100D03*
X465500Y187700D03*
X465500Y213100D03*
X490900Y187700D03*
X490900Y213100D03*
X59100Y441700D03*
X59100Y467100D03*
X84500Y441700D03*
X84500Y467100D03*
X109900Y441700D03*
X109900Y467100D03*
X135300Y441700D03*
X135300Y467100D03*
X160700Y441700D03*
X160700Y467100D03*
X186100Y441700D03*
X186100Y467100D03*
X211500Y441700D03*
X211500Y467100D03*
X236900Y441700D03*
X236900Y467100D03*
X262300Y441700D03*
X262300Y467100D03*
X287700Y441700D03*
X287700Y467100D03*
X313100Y441700D03*
X313100Y467100D03*
X338500Y441700D03*
X338500Y467100D03*
X363900Y441700D03*
X363900Y467100D03*
X389300Y441700D03*
X389300Y467100D03*
X414700Y441700D03*
X414700Y467100D03*
X440100Y441700D03*
X440100Y467100D03*
X465500Y441700D03*
X465500Y467100D03*
X490900Y441700D03*
X490900Y467100D03*
D17*
X33020Y736600D03*
X30480Y863600D03*
X970280Y226060D03*
X1214120Y279400D03*
M02*
