G04 EAGLE Gerber RS-274X export*
G75*
%MOMM*%
%FSLAX34Y34*%
%LPD*%
%INTop Copper*%
%IPPOS*%
%AMOC8*
5,1,8,0,0,1.08239X$1,22.5*%
G01*
%ADD10R,4.100000X2.000000*%
%ADD11R,0.800000X0.800000*%
%ADD12C,1.016000*%
%ADD13R,1.676400X1.676400*%
%ADD14C,1.676400*%
%ADD15C,4.016000*%
%ADD16R,1.288000X1.288000*%
%ADD17C,1.288000*%
%ADD18C,3.220000*%
%ADD19C,4.445000*%
%ADD20C,1.400000*%
%ADD21R,0.609600X0.508000*%
%ADD22C,1.960000*%
%ADD23R,1.524000X1.524000*%
%ADD24P,1.649562X8X22.500000*%
%ADD25C,0.254000*%
%ADD26C,0.609600*%


D10*
X1036000Y355600D03*
X1123000Y355600D03*
D11*
X1135500Y736600D03*
X1150500Y736600D03*
X1135500Y812800D03*
X1150500Y812800D03*
X1135500Y889000D03*
X1150500Y889000D03*
D12*
X292100Y952500D03*
X50800Y101600D03*
X990600Y76200D03*
D13*
X406400Y876300D03*
D14*
X431800Y876300D03*
X457200Y876300D03*
X482600Y876300D03*
X508000Y876300D03*
X533400Y876300D03*
X558800Y876300D03*
X584200Y876300D03*
X609600Y876300D03*
X635000Y876300D03*
X660400Y876300D03*
X685800Y876300D03*
X711200Y876300D03*
X736600Y876300D03*
X762000Y876300D03*
X787400Y876300D03*
X812800Y876300D03*
X838200Y876300D03*
X863600Y876300D03*
X889000Y876300D03*
D13*
X406400Y114300D03*
D14*
X431800Y114300D03*
X457200Y114300D03*
X482600Y114300D03*
X508000Y114300D03*
X533400Y114300D03*
X558800Y114300D03*
X584200Y114300D03*
X609600Y114300D03*
X635000Y114300D03*
X660400Y114300D03*
X685800Y114300D03*
X711200Y114300D03*
X736600Y114300D03*
X762000Y114300D03*
X787400Y114300D03*
X812800Y114300D03*
X838200Y114300D03*
X863600Y114300D03*
X889000Y114300D03*
D15*
X361950Y114300D03*
X933450Y114300D03*
X361950Y876300D03*
X933450Y876300D03*
D16*
X1041400Y254000D03*
D17*
X1066400Y254000D03*
X1086400Y254000D03*
X1111400Y254000D03*
D18*
X1010700Y226900D03*
X1142100Y226900D03*
D19*
X50800Y965200D03*
X1219200Y965200D03*
X1219200Y50800D03*
X50800Y50800D03*
D20*
X1067200Y508000D03*
X1092200Y508000D03*
X1117200Y508000D03*
X284880Y525780D03*
X309880Y525780D03*
X334880Y525780D03*
D21*
X45212Y736600D03*
X56388Y736600D03*
X45212Y863600D03*
X56388Y863600D03*
X1188212Y279400D03*
X1199388Y279400D03*
D22*
X214900Y761600D03*
X214900Y711600D03*
X89900Y711600D03*
X89900Y761600D03*
X214900Y914000D03*
X214900Y864000D03*
X89900Y864000D03*
X89900Y914000D03*
D23*
X59100Y187700D03*
D24*
X59100Y213100D03*
X84500Y187700D03*
X84500Y213100D03*
X109900Y187700D03*
X109900Y213100D03*
X135300Y187700D03*
X135300Y213100D03*
X160700Y187700D03*
X160700Y213100D03*
X186100Y187700D03*
X186100Y213100D03*
X211500Y187700D03*
X211500Y213100D03*
X236900Y187700D03*
X236900Y213100D03*
X262300Y187700D03*
X262300Y213100D03*
X287700Y187700D03*
X287700Y213100D03*
X313100Y187700D03*
X313100Y213100D03*
X338500Y187700D03*
X338500Y213100D03*
X363900Y187700D03*
X363900Y213100D03*
X389300Y187700D03*
X389300Y213100D03*
X414700Y187700D03*
X414700Y213100D03*
X440100Y187700D03*
X440100Y213100D03*
X465500Y187700D03*
X465500Y213100D03*
X490900Y187700D03*
X490900Y213100D03*
D23*
X59100Y441700D03*
D24*
X59100Y467100D03*
X84500Y441700D03*
X84500Y467100D03*
X109900Y441700D03*
X109900Y467100D03*
X135300Y441700D03*
X135300Y467100D03*
X160700Y441700D03*
X160700Y467100D03*
X186100Y441700D03*
X186100Y467100D03*
X211500Y441700D03*
X211500Y467100D03*
X236900Y441700D03*
X236900Y467100D03*
X262300Y441700D03*
X262300Y467100D03*
X287700Y441700D03*
X287700Y467100D03*
X313100Y441700D03*
X313100Y467100D03*
X338500Y441700D03*
X338500Y467100D03*
X363900Y441700D03*
X363900Y467100D03*
X389300Y441700D03*
X389300Y467100D03*
X414700Y441700D03*
X414700Y467100D03*
X440100Y441700D03*
X440100Y467100D03*
X465500Y441700D03*
X465500Y467100D03*
X490900Y441700D03*
X490900Y467100D03*
D25*
X214900Y761600D02*
X89900Y761600D01*
X64900Y736600D01*
X56388Y736600D01*
X56388Y569032D01*
X160700Y467100D02*
X160700Y465500D01*
X56388Y569032D02*
X46156Y558800D01*
X27940Y558800D01*
X17780Y548640D01*
X17780Y378460D01*
X38100Y358140D01*
X185420Y358140D01*
X185420Y426216D01*
X174670Y453130D02*
X160700Y467100D01*
X174670Y436966D02*
X185420Y426216D01*
X174670Y436966D02*
X174670Y453130D01*
X45212Y736600D02*
X33020Y736600D01*
D26*
X33020Y736600D03*
D25*
X30480Y863600D02*
X45212Y863600D01*
D26*
X30480Y863600D03*
D25*
X56388Y863600D02*
X56388Y880488D01*
X89600Y913700D01*
X89900Y914000D02*
X214900Y914000D01*
X89900Y914000D02*
X89600Y913700D01*
X884040Y637540D02*
X1135500Y889000D01*
X884040Y637540D02*
X132080Y637540D01*
X111760Y468960D02*
X109900Y467100D01*
X58420Y421752D02*
X58420Y368300D01*
X58420Y421752D02*
X47670Y432502D01*
X47670Y553130D01*
X58420Y368300D02*
X63500Y363220D01*
X109220Y363220D01*
X98470Y436966D02*
X98470Y446435D01*
X109900Y457865D02*
X109900Y467100D01*
X109900Y457865D02*
X98470Y446435D01*
X109220Y426216D02*
X109220Y363220D01*
X109220Y426216D02*
X98470Y436966D01*
X47670Y553130D02*
X132080Y637540D01*
X947540Y624840D02*
X1135500Y812800D01*
X84500Y467100D02*
X83820Y467780D01*
X142240Y624840D02*
X947540Y624840D01*
X142240Y624840D02*
X83820Y566420D01*
X83820Y467780D01*
X1013580Y614680D02*
X1135500Y736600D01*
X1013580Y614680D02*
X172720Y614680D01*
X115570Y557530D01*
X115570Y523570D01*
X95930Y462366D02*
X89235Y455670D01*
X79766Y455670D01*
X95930Y503930D02*
X115570Y523570D01*
X95930Y503930D02*
X95930Y462366D01*
X79766Y455670D02*
X68336Y467100D01*
X59100Y467100D01*
X1123000Y427040D02*
X1123000Y355600D01*
X1123000Y427040D02*
X1181100Y485140D01*
X1181100Y706000D01*
X1150500Y736600D01*
X1150500Y805060D01*
X1150620Y805180D01*
X1150620Y888880D01*
X1150500Y889000D01*
X1123000Y355600D02*
X1188212Y290388D01*
X1188212Y279400D01*
X1136800Y279400D02*
X1111400Y254000D01*
X1136800Y279400D02*
X1188212Y279400D01*
X1078010Y512478D02*
X1071678Y518810D01*
X1078010Y512478D02*
X1078010Y503522D01*
X1071678Y497190D01*
X341850Y518810D02*
X334880Y525780D01*
X352426Y497190D02*
X327070Y471835D01*
X341850Y518810D02*
X1071678Y518810D01*
X1071678Y497190D02*
X352426Y497190D01*
X327070Y471835D02*
X327070Y315550D01*
X330200Y312420D01*
X330200Y284044D01*
X276270Y201670D02*
X262300Y187700D01*
X276270Y230114D02*
X330200Y284044D01*
X276270Y230114D02*
X276270Y201670D01*
X334880Y525780D02*
X1094340Y525780D01*
X1092200Y508000D02*
X904240Y320040D01*
X373380Y320040D01*
X287700Y196936D02*
X287700Y187700D01*
X287700Y196936D02*
X299130Y208366D01*
X299130Y245790D02*
X373380Y320040D01*
X299130Y245790D02*
X299130Y208366D01*
X257566Y176270D02*
X250870Y182966D01*
X303865Y187700D02*
X313100Y187700D01*
X303865Y187700D02*
X292435Y176270D01*
X257566Y176270D01*
X250870Y182966D02*
X250870Y386166D01*
X174670Y462366D02*
X174670Y471835D01*
X183906Y453130D02*
X190835Y453130D01*
X197530Y446435D01*
X197530Y439506D01*
X250870Y386166D01*
X183906Y453130D02*
X174670Y462366D01*
X307352Y525780D02*
X309880Y525780D01*
X307352Y525780D02*
X291462Y541670D01*
X244506Y541670D02*
X174670Y471835D01*
X244506Y541670D02*
X291462Y541670D01*
X1041400Y350200D02*
X1041400Y254000D01*
X1041400Y350200D02*
X1036000Y355600D01*
X1128010Y503522D02*
X1128010Y512478D01*
X440360Y314960D02*
X340830Y215430D01*
X338500Y213100D01*
X1107088Y533400D02*
X1128010Y512478D01*
X1128010Y503522D02*
X939448Y314960D01*
X440360Y314960D01*
X109900Y187700D02*
X109900Y116160D01*
X177800Y48260D01*
X541020Y48260D01*
X546608Y119350D02*
X551180Y123922D01*
X551180Y152400D01*
X546608Y53848D02*
X541020Y48260D01*
X546608Y53848D02*
X546608Y119350D01*
X551180Y152400D02*
X501910Y201670D01*
X347736Y213100D02*
X338500Y213100D01*
X347736Y213100D02*
X359166Y201670D01*
X501910Y201670D01*
X1034210Y246810D02*
X1041400Y254000D01*
X350066Y215430D02*
X340830Y215430D01*
X1002453Y246810D02*
X1034210Y246810D01*
X359166Y224530D02*
X350066Y215430D01*
X974845Y219202D02*
X1002453Y246810D01*
X974845Y219202D02*
X500963Y219202D01*
X495635Y224530D01*
X359166Y224530D01*
X211500Y441700D02*
X225470Y455670D01*
X225470Y471835D01*
X280402Y536590D02*
X289358Y536590D01*
X295690Y530258D01*
X305402Y514970D02*
X314358Y514970D01*
X295690Y524682D02*
X295690Y530258D01*
X314358Y514970D02*
X319864Y520476D01*
X324896Y520476D01*
X305402Y514970D02*
X295690Y524682D01*
X271190Y527378D02*
X271190Y517555D01*
X271190Y527378D02*
X280402Y536590D01*
X324070Y521302D02*
X324896Y520476D01*
X324070Y521302D02*
X324070Y530258D01*
X330402Y536590D01*
X339358Y536590D01*
X342548Y533400D01*
X271190Y517555D02*
X225470Y471835D01*
X342548Y533400D02*
X1107088Y533400D01*
X1067200Y508000D02*
X302660Y508000D01*
X284880Y525780D01*
X276270Y517170D01*
X276270Y237299D01*
X271190Y221990D02*
X262300Y213100D01*
X271190Y221990D02*
X271190Y232219D01*
X276270Y237299D01*
X135300Y213100D02*
X135300Y203865D01*
X165435Y199130D02*
X172130Y192435D01*
X149270Y199130D02*
X135300Y213100D01*
X149270Y199130D02*
X165435Y199130D01*
X172130Y192435D02*
X172130Y185506D01*
X289056Y68580D01*
X452120Y68580D01*
X482600Y99060D01*
X482600Y114300D01*
X197530Y192435D02*
X190835Y199130D01*
X174670Y199130D02*
X160700Y213100D01*
X499842Y114300D02*
X513080Y114300D01*
X190835Y199130D02*
X174670Y199130D01*
X197530Y192435D02*
X197530Y185506D01*
X244846Y138190D01*
X475952Y138190D01*
X499842Y114300D01*
X222930Y192435D02*
X216235Y199130D01*
X200070Y199130D02*
X186100Y213100D01*
X525242Y114300D02*
X533400Y114300D01*
X216235Y199130D02*
X200070Y199130D01*
X222930Y192435D02*
X222930Y185506D01*
X265166Y143270D01*
X496272Y143270D01*
X525242Y114300D01*
X558800Y50800D02*
X538480Y30480D01*
X170180Y30480D01*
X109900Y203865D02*
X109900Y213100D01*
X109900Y203865D02*
X98470Y192435D01*
X98470Y102190D01*
X558800Y114300D02*
X558800Y50800D01*
X170180Y30480D02*
X98470Y102190D01*
X584200Y114300D02*
X584200Y40640D01*
X563880Y20320D01*
X137160Y20320D01*
X84500Y72980D01*
X73070Y182966D02*
X73070Y192435D01*
X84500Y171536D02*
X84500Y72980D01*
X84500Y203865D02*
X84500Y213100D01*
X73070Y182966D02*
X84500Y171536D01*
X73070Y192435D02*
X84500Y203865D01*
X609600Y114300D02*
X609600Y27940D01*
X586740Y5080D01*
X124460Y5080D01*
X76835Y52705D01*
X47670Y178502D02*
X47670Y196898D01*
X59100Y208328D02*
X59100Y213100D01*
X59100Y208328D02*
X47670Y196898D01*
X76835Y149337D02*
X76835Y52705D01*
X76835Y149337D02*
X47670Y178502D01*
D26*
X970280Y226060D03*
D25*
X1199388Y279400D02*
X1214120Y279400D01*
D26*
X1214120Y279400D03*
M02*
