G04 EAGLE Gerber RS-274X export*
G75*
%MOMM*%
%FSLAX34Y34*%
%LPD*%
%IN*%
%IPPOS*%
%AMOC8*
5,1,8,0,0,1.08239X$1,22.5*%
G01*
%ADD10C,0.254000*%


D10*
X0Y0D02*
X1270000Y0D01*
X1270000Y1016000D01*
X0Y1016000D01*
X0Y0D01*
X1054700Y577509D02*
X1054623Y576530D01*
X1054469Y575560D01*
X1054240Y574604D01*
X1053936Y573670D01*
X1053561Y572763D01*
X1053115Y571888D01*
X1052601Y571050D01*
X1052024Y570255D01*
X1051386Y569508D01*
X1050692Y568814D01*
X1049945Y568176D01*
X1049150Y567599D01*
X1048312Y567085D01*
X1047437Y566639D01*
X1046530Y566264D01*
X1045596Y565960D01*
X1044641Y565731D01*
X1043670Y565577D01*
X1042691Y565500D01*
X1041709Y565500D01*
X1040730Y565577D01*
X1039760Y565731D01*
X1038804Y565960D01*
X1037870Y566264D01*
X1036963Y566639D01*
X1036088Y567085D01*
X1035250Y567599D01*
X1034455Y568176D01*
X1033708Y568814D01*
X1033014Y569508D01*
X1032376Y570255D01*
X1031799Y571050D01*
X1031285Y571888D01*
X1030839Y572763D01*
X1030464Y573670D01*
X1030160Y574604D01*
X1029931Y575560D01*
X1029777Y576530D01*
X1029700Y577509D01*
X1029700Y578491D01*
X1029777Y579470D01*
X1029931Y580441D01*
X1030160Y581396D01*
X1030464Y582330D01*
X1030839Y583237D01*
X1031285Y584112D01*
X1031799Y584950D01*
X1032376Y585745D01*
X1033014Y586492D01*
X1033708Y587186D01*
X1034455Y587824D01*
X1035250Y588401D01*
X1036088Y588915D01*
X1036963Y589361D01*
X1037870Y589736D01*
X1038804Y590040D01*
X1039760Y590269D01*
X1040730Y590423D01*
X1041709Y590500D01*
X1042691Y590500D01*
X1043670Y590423D01*
X1044641Y590269D01*
X1045596Y590040D01*
X1046530Y589736D01*
X1047437Y589361D01*
X1048312Y588915D01*
X1049150Y588401D01*
X1049945Y587824D01*
X1050692Y587186D01*
X1051386Y586492D01*
X1052024Y585745D01*
X1052601Y584950D01*
X1053115Y584112D01*
X1053561Y583237D01*
X1053936Y582330D01*
X1054240Y581396D01*
X1054469Y580441D01*
X1054623Y579470D01*
X1054700Y578491D01*
X1054700Y577509D01*
X1154700Y577509D02*
X1154623Y576530D01*
X1154469Y575560D01*
X1154240Y574604D01*
X1153936Y573670D01*
X1153561Y572763D01*
X1153115Y571888D01*
X1152601Y571050D01*
X1152024Y570255D01*
X1151386Y569508D01*
X1150692Y568814D01*
X1149945Y568176D01*
X1149150Y567599D01*
X1148312Y567085D01*
X1147437Y566639D01*
X1146530Y566264D01*
X1145596Y565960D01*
X1144641Y565731D01*
X1143670Y565577D01*
X1142691Y565500D01*
X1141709Y565500D01*
X1140730Y565577D01*
X1139760Y565731D01*
X1138804Y565960D01*
X1137870Y566264D01*
X1136963Y566639D01*
X1136088Y567085D01*
X1135250Y567599D01*
X1134455Y568176D01*
X1133708Y568814D01*
X1133014Y569508D01*
X1132376Y570255D01*
X1131799Y571050D01*
X1131285Y571888D01*
X1130839Y572763D01*
X1130464Y573670D01*
X1130160Y574604D01*
X1129931Y575560D01*
X1129777Y576530D01*
X1129700Y577509D01*
X1129700Y578491D01*
X1129777Y579470D01*
X1129931Y580441D01*
X1130160Y581396D01*
X1130464Y582330D01*
X1130839Y583237D01*
X1131285Y584112D01*
X1131799Y584950D01*
X1132376Y585745D01*
X1133014Y586492D01*
X1133708Y587186D01*
X1134455Y587824D01*
X1135250Y588401D01*
X1136088Y588915D01*
X1136963Y589361D01*
X1137870Y589736D01*
X1138804Y590040D01*
X1139760Y590269D01*
X1140730Y590423D01*
X1141709Y590500D01*
X1142691Y590500D01*
X1143670Y590423D01*
X1144641Y590269D01*
X1145596Y590040D01*
X1146530Y589736D01*
X1147437Y589361D01*
X1148312Y588915D01*
X1149150Y588401D01*
X1149945Y587824D01*
X1150692Y587186D01*
X1151386Y586492D01*
X1152024Y585745D01*
X1152601Y584950D01*
X1153115Y584112D01*
X1153561Y583237D01*
X1153936Y582330D01*
X1154240Y581396D01*
X1154469Y580441D01*
X1154623Y579470D01*
X1154700Y578491D01*
X1154700Y577509D01*
X272380Y595289D02*
X272303Y594310D01*
X272149Y593340D01*
X271920Y592384D01*
X271616Y591450D01*
X271241Y590543D01*
X270795Y589668D01*
X270281Y588830D01*
X269704Y588035D01*
X269066Y587288D01*
X268372Y586594D01*
X267625Y585956D01*
X266830Y585379D01*
X265992Y584865D01*
X265117Y584419D01*
X264210Y584044D01*
X263276Y583740D01*
X262321Y583511D01*
X261350Y583357D01*
X260371Y583280D01*
X259389Y583280D01*
X258410Y583357D01*
X257440Y583511D01*
X256484Y583740D01*
X255550Y584044D01*
X254643Y584419D01*
X253768Y584865D01*
X252930Y585379D01*
X252135Y585956D01*
X251388Y586594D01*
X250694Y587288D01*
X250056Y588035D01*
X249479Y588830D01*
X248965Y589668D01*
X248519Y590543D01*
X248144Y591450D01*
X247840Y592384D01*
X247611Y593340D01*
X247457Y594310D01*
X247380Y595289D01*
X247380Y596271D01*
X247457Y597250D01*
X247611Y598221D01*
X247840Y599176D01*
X248144Y600110D01*
X248519Y601017D01*
X248965Y601892D01*
X249479Y602730D01*
X250056Y603525D01*
X250694Y604272D01*
X251388Y604966D01*
X252135Y605604D01*
X252930Y606181D01*
X253768Y606695D01*
X254643Y607141D01*
X255550Y607516D01*
X256484Y607820D01*
X257440Y608049D01*
X258410Y608203D01*
X259389Y608280D01*
X260371Y608280D01*
X261350Y608203D01*
X262321Y608049D01*
X263276Y607820D01*
X264210Y607516D01*
X265117Y607141D01*
X265992Y606695D01*
X266830Y606181D01*
X267625Y605604D01*
X268372Y604966D01*
X269066Y604272D01*
X269704Y603525D01*
X270281Y602730D01*
X270795Y601892D01*
X271241Y601017D01*
X271616Y600110D01*
X271920Y599176D01*
X272149Y598221D01*
X272303Y597250D01*
X272380Y596271D01*
X272380Y595289D01*
X372380Y595289D02*
X372303Y594310D01*
X372149Y593340D01*
X371920Y592384D01*
X371616Y591450D01*
X371241Y590543D01*
X370795Y589668D01*
X370281Y588830D01*
X369704Y588035D01*
X369066Y587288D01*
X368372Y586594D01*
X367625Y585956D01*
X366830Y585379D01*
X365992Y584865D01*
X365117Y584419D01*
X364210Y584044D01*
X363276Y583740D01*
X362321Y583511D01*
X361350Y583357D01*
X360371Y583280D01*
X359389Y583280D01*
X358410Y583357D01*
X357440Y583511D01*
X356484Y583740D01*
X355550Y584044D01*
X354643Y584419D01*
X353768Y584865D01*
X352930Y585379D01*
X352135Y585956D01*
X351388Y586594D01*
X350694Y587288D01*
X350056Y588035D01*
X349479Y588830D01*
X348965Y589668D01*
X348519Y590543D01*
X348144Y591450D01*
X347840Y592384D01*
X347611Y593340D01*
X347457Y594310D01*
X347380Y595289D01*
X347380Y596271D01*
X347457Y597250D01*
X347611Y598221D01*
X347840Y599176D01*
X348144Y600110D01*
X348519Y601017D01*
X348965Y601892D01*
X349479Y602730D01*
X350056Y603525D01*
X350694Y604272D01*
X351388Y604966D01*
X352135Y605604D01*
X352930Y606181D01*
X353768Y606695D01*
X354643Y607141D01*
X355550Y607516D01*
X356484Y607820D01*
X357440Y608049D01*
X358410Y608203D01*
X359389Y608280D01*
X360371Y608280D01*
X361350Y608203D01*
X362321Y608049D01*
X363276Y607820D01*
X364210Y607516D01*
X365117Y607141D01*
X365992Y606695D01*
X366830Y606181D01*
X367625Y605604D01*
X368372Y604966D01*
X369066Y604272D01*
X369704Y603525D01*
X370281Y602730D01*
X370795Y601892D01*
X371241Y601017D01*
X371616Y600110D01*
X371920Y599176D01*
X372149Y598221D01*
X372303Y597250D01*
X372380Y596271D01*
X372380Y595289D01*
M02*
