G04 EAGLE Gerber RS-274X export*
G75*
%MOMM*%
%FSLAX34Y34*%
%LPD*%
%INSoldermask Bottom*%
%IPPOS*%
%AMOC8*
5,1,8,0,0,1.08239X$1,22.5*%
G01*
%ADD10C,0.609600*%
%ADD11C,1.168400*%
%ADD12R,1.828800X1.828800*%
%ADD13C,1.828800*%
%ADD14C,4.168400*%
%ADD15R,1.440400X1.440400*%
%ADD16C,1.440400*%
%ADD17C,3.372400*%
%ADD18C,4.597400*%
%ADD19C,1.552400*%
%ADD20C,2.652400*%
%ADD21C,2.112400*%
%ADD22R,1.676400X1.676400*%
%ADD23P,1.814519X8X22.500000*%


D10*
X982980Y76200D02*
X982982Y76387D01*
X982989Y76574D01*
X983001Y76761D01*
X983017Y76947D01*
X983037Y77133D01*
X983062Y77318D01*
X983092Y77503D01*
X983126Y77687D01*
X983165Y77870D01*
X983208Y78052D01*
X983256Y78232D01*
X983308Y78412D01*
X983365Y78590D01*
X983425Y78767D01*
X983491Y78942D01*
X983560Y79116D01*
X983634Y79288D01*
X983712Y79458D01*
X983794Y79626D01*
X983880Y79792D01*
X983970Y79956D01*
X984064Y80117D01*
X984162Y80277D01*
X984264Y80433D01*
X984370Y80588D01*
X984480Y80739D01*
X984593Y80888D01*
X984710Y81034D01*
X984830Y81177D01*
X984954Y81317D01*
X985081Y81454D01*
X985212Y81588D01*
X985346Y81719D01*
X985483Y81846D01*
X985623Y81970D01*
X985766Y82090D01*
X985912Y82207D01*
X986061Y82320D01*
X986212Y82430D01*
X986367Y82536D01*
X986523Y82638D01*
X986683Y82736D01*
X986844Y82830D01*
X987008Y82920D01*
X987174Y83006D01*
X987342Y83088D01*
X987512Y83166D01*
X987684Y83240D01*
X987858Y83309D01*
X988033Y83375D01*
X988210Y83435D01*
X988388Y83492D01*
X988568Y83544D01*
X988748Y83592D01*
X988930Y83635D01*
X989113Y83674D01*
X989297Y83708D01*
X989482Y83738D01*
X989667Y83763D01*
X989853Y83783D01*
X990039Y83799D01*
X990226Y83811D01*
X990413Y83818D01*
X990600Y83820D01*
X990787Y83818D01*
X990974Y83811D01*
X991161Y83799D01*
X991347Y83783D01*
X991533Y83763D01*
X991718Y83738D01*
X991903Y83708D01*
X992087Y83674D01*
X992270Y83635D01*
X992452Y83592D01*
X992632Y83544D01*
X992812Y83492D01*
X992990Y83435D01*
X993167Y83375D01*
X993342Y83309D01*
X993516Y83240D01*
X993688Y83166D01*
X993858Y83088D01*
X994026Y83006D01*
X994192Y82920D01*
X994356Y82830D01*
X994517Y82736D01*
X994677Y82638D01*
X994833Y82536D01*
X994988Y82430D01*
X995139Y82320D01*
X995288Y82207D01*
X995434Y82090D01*
X995577Y81970D01*
X995717Y81846D01*
X995854Y81719D01*
X995988Y81588D01*
X996119Y81454D01*
X996246Y81317D01*
X996370Y81177D01*
X996490Y81034D01*
X996607Y80888D01*
X996720Y80739D01*
X996830Y80588D01*
X996936Y80433D01*
X997038Y80277D01*
X997136Y80117D01*
X997230Y79956D01*
X997320Y79792D01*
X997406Y79626D01*
X997488Y79458D01*
X997566Y79288D01*
X997640Y79116D01*
X997709Y78942D01*
X997775Y78767D01*
X997835Y78590D01*
X997892Y78412D01*
X997944Y78232D01*
X997992Y78052D01*
X998035Y77870D01*
X998074Y77687D01*
X998108Y77503D01*
X998138Y77318D01*
X998163Y77133D01*
X998183Y76947D01*
X998199Y76761D01*
X998211Y76574D01*
X998218Y76387D01*
X998220Y76200D01*
X998218Y76013D01*
X998211Y75826D01*
X998199Y75639D01*
X998183Y75453D01*
X998163Y75267D01*
X998138Y75082D01*
X998108Y74897D01*
X998074Y74713D01*
X998035Y74530D01*
X997992Y74348D01*
X997944Y74168D01*
X997892Y73988D01*
X997835Y73810D01*
X997775Y73633D01*
X997709Y73458D01*
X997640Y73284D01*
X997566Y73112D01*
X997488Y72942D01*
X997406Y72774D01*
X997320Y72608D01*
X997230Y72444D01*
X997136Y72283D01*
X997038Y72123D01*
X996936Y71967D01*
X996830Y71812D01*
X996720Y71661D01*
X996607Y71512D01*
X996490Y71366D01*
X996370Y71223D01*
X996246Y71083D01*
X996119Y70946D01*
X995988Y70812D01*
X995854Y70681D01*
X995717Y70554D01*
X995577Y70430D01*
X995434Y70310D01*
X995288Y70193D01*
X995139Y70080D01*
X994988Y69970D01*
X994833Y69864D01*
X994677Y69762D01*
X994517Y69664D01*
X994356Y69570D01*
X994192Y69480D01*
X994026Y69394D01*
X993858Y69312D01*
X993688Y69234D01*
X993516Y69160D01*
X993342Y69091D01*
X993167Y69025D01*
X992990Y68965D01*
X992812Y68908D01*
X992632Y68856D01*
X992452Y68808D01*
X992270Y68765D01*
X992087Y68726D01*
X991903Y68692D01*
X991718Y68662D01*
X991533Y68637D01*
X991347Y68617D01*
X991161Y68601D01*
X990974Y68589D01*
X990787Y68582D01*
X990600Y68580D01*
X990413Y68582D01*
X990226Y68589D01*
X990039Y68601D01*
X989853Y68617D01*
X989667Y68637D01*
X989482Y68662D01*
X989297Y68692D01*
X989113Y68726D01*
X988930Y68765D01*
X988748Y68808D01*
X988568Y68856D01*
X988388Y68908D01*
X988210Y68965D01*
X988033Y69025D01*
X987858Y69091D01*
X987684Y69160D01*
X987512Y69234D01*
X987342Y69312D01*
X987174Y69394D01*
X987008Y69480D01*
X986844Y69570D01*
X986683Y69664D01*
X986523Y69762D01*
X986367Y69864D01*
X986212Y69970D01*
X986061Y70080D01*
X985912Y70193D01*
X985766Y70310D01*
X985623Y70430D01*
X985483Y70554D01*
X985346Y70681D01*
X985212Y70812D01*
X985081Y70946D01*
X984954Y71083D01*
X984830Y71223D01*
X984710Y71366D01*
X984593Y71512D01*
X984480Y71661D01*
X984370Y71812D01*
X984264Y71967D01*
X984162Y72123D01*
X984064Y72283D01*
X983970Y72444D01*
X983880Y72608D01*
X983794Y72774D01*
X983712Y72942D01*
X983634Y73112D01*
X983560Y73284D01*
X983491Y73458D01*
X983425Y73633D01*
X983365Y73810D01*
X983308Y73988D01*
X983256Y74168D01*
X983208Y74348D01*
X983165Y74530D01*
X983126Y74713D01*
X983092Y74897D01*
X983062Y75082D01*
X983037Y75267D01*
X983017Y75453D01*
X983001Y75639D01*
X982989Y75826D01*
X982982Y76013D01*
X982980Y76200D01*
D11*
X990600Y76200D03*
D10*
X284480Y952500D02*
X284482Y952687D01*
X284489Y952874D01*
X284501Y953061D01*
X284517Y953247D01*
X284537Y953433D01*
X284562Y953618D01*
X284592Y953803D01*
X284626Y953987D01*
X284665Y954170D01*
X284708Y954352D01*
X284756Y954532D01*
X284808Y954712D01*
X284865Y954890D01*
X284925Y955067D01*
X284991Y955242D01*
X285060Y955416D01*
X285134Y955588D01*
X285212Y955758D01*
X285294Y955926D01*
X285380Y956092D01*
X285470Y956256D01*
X285564Y956417D01*
X285662Y956577D01*
X285764Y956733D01*
X285870Y956888D01*
X285980Y957039D01*
X286093Y957188D01*
X286210Y957334D01*
X286330Y957477D01*
X286454Y957617D01*
X286581Y957754D01*
X286712Y957888D01*
X286846Y958019D01*
X286983Y958146D01*
X287123Y958270D01*
X287266Y958390D01*
X287412Y958507D01*
X287561Y958620D01*
X287712Y958730D01*
X287867Y958836D01*
X288023Y958938D01*
X288183Y959036D01*
X288344Y959130D01*
X288508Y959220D01*
X288674Y959306D01*
X288842Y959388D01*
X289012Y959466D01*
X289184Y959540D01*
X289358Y959609D01*
X289533Y959675D01*
X289710Y959735D01*
X289888Y959792D01*
X290068Y959844D01*
X290248Y959892D01*
X290430Y959935D01*
X290613Y959974D01*
X290797Y960008D01*
X290982Y960038D01*
X291167Y960063D01*
X291353Y960083D01*
X291539Y960099D01*
X291726Y960111D01*
X291913Y960118D01*
X292100Y960120D01*
X292287Y960118D01*
X292474Y960111D01*
X292661Y960099D01*
X292847Y960083D01*
X293033Y960063D01*
X293218Y960038D01*
X293403Y960008D01*
X293587Y959974D01*
X293770Y959935D01*
X293952Y959892D01*
X294132Y959844D01*
X294312Y959792D01*
X294490Y959735D01*
X294667Y959675D01*
X294842Y959609D01*
X295016Y959540D01*
X295188Y959466D01*
X295358Y959388D01*
X295526Y959306D01*
X295692Y959220D01*
X295856Y959130D01*
X296017Y959036D01*
X296177Y958938D01*
X296333Y958836D01*
X296488Y958730D01*
X296639Y958620D01*
X296788Y958507D01*
X296934Y958390D01*
X297077Y958270D01*
X297217Y958146D01*
X297354Y958019D01*
X297488Y957888D01*
X297619Y957754D01*
X297746Y957617D01*
X297870Y957477D01*
X297990Y957334D01*
X298107Y957188D01*
X298220Y957039D01*
X298330Y956888D01*
X298436Y956733D01*
X298538Y956577D01*
X298636Y956417D01*
X298730Y956256D01*
X298820Y956092D01*
X298906Y955926D01*
X298988Y955758D01*
X299066Y955588D01*
X299140Y955416D01*
X299209Y955242D01*
X299275Y955067D01*
X299335Y954890D01*
X299392Y954712D01*
X299444Y954532D01*
X299492Y954352D01*
X299535Y954170D01*
X299574Y953987D01*
X299608Y953803D01*
X299638Y953618D01*
X299663Y953433D01*
X299683Y953247D01*
X299699Y953061D01*
X299711Y952874D01*
X299718Y952687D01*
X299720Y952500D01*
X299718Y952313D01*
X299711Y952126D01*
X299699Y951939D01*
X299683Y951753D01*
X299663Y951567D01*
X299638Y951382D01*
X299608Y951197D01*
X299574Y951013D01*
X299535Y950830D01*
X299492Y950648D01*
X299444Y950468D01*
X299392Y950288D01*
X299335Y950110D01*
X299275Y949933D01*
X299209Y949758D01*
X299140Y949584D01*
X299066Y949412D01*
X298988Y949242D01*
X298906Y949074D01*
X298820Y948908D01*
X298730Y948744D01*
X298636Y948583D01*
X298538Y948423D01*
X298436Y948267D01*
X298330Y948112D01*
X298220Y947961D01*
X298107Y947812D01*
X297990Y947666D01*
X297870Y947523D01*
X297746Y947383D01*
X297619Y947246D01*
X297488Y947112D01*
X297354Y946981D01*
X297217Y946854D01*
X297077Y946730D01*
X296934Y946610D01*
X296788Y946493D01*
X296639Y946380D01*
X296488Y946270D01*
X296333Y946164D01*
X296177Y946062D01*
X296017Y945964D01*
X295856Y945870D01*
X295692Y945780D01*
X295526Y945694D01*
X295358Y945612D01*
X295188Y945534D01*
X295016Y945460D01*
X294842Y945391D01*
X294667Y945325D01*
X294490Y945265D01*
X294312Y945208D01*
X294132Y945156D01*
X293952Y945108D01*
X293770Y945065D01*
X293587Y945026D01*
X293403Y944992D01*
X293218Y944962D01*
X293033Y944937D01*
X292847Y944917D01*
X292661Y944901D01*
X292474Y944889D01*
X292287Y944882D01*
X292100Y944880D01*
X291913Y944882D01*
X291726Y944889D01*
X291539Y944901D01*
X291353Y944917D01*
X291167Y944937D01*
X290982Y944962D01*
X290797Y944992D01*
X290613Y945026D01*
X290430Y945065D01*
X290248Y945108D01*
X290068Y945156D01*
X289888Y945208D01*
X289710Y945265D01*
X289533Y945325D01*
X289358Y945391D01*
X289184Y945460D01*
X289012Y945534D01*
X288842Y945612D01*
X288674Y945694D01*
X288508Y945780D01*
X288344Y945870D01*
X288183Y945964D01*
X288023Y946062D01*
X287867Y946164D01*
X287712Y946270D01*
X287561Y946380D01*
X287412Y946493D01*
X287266Y946610D01*
X287123Y946730D01*
X286983Y946854D01*
X286846Y946981D01*
X286712Y947112D01*
X286581Y947246D01*
X286454Y947383D01*
X286330Y947523D01*
X286210Y947666D01*
X286093Y947812D01*
X285980Y947961D01*
X285870Y948112D01*
X285764Y948267D01*
X285662Y948423D01*
X285564Y948583D01*
X285470Y948744D01*
X285380Y948908D01*
X285294Y949074D01*
X285212Y949242D01*
X285134Y949412D01*
X285060Y949584D01*
X284991Y949758D01*
X284925Y949933D01*
X284865Y950110D01*
X284808Y950288D01*
X284756Y950468D01*
X284708Y950648D01*
X284665Y950830D01*
X284626Y951013D01*
X284592Y951197D01*
X284562Y951382D01*
X284537Y951567D01*
X284517Y951753D01*
X284501Y951939D01*
X284489Y952126D01*
X284482Y952313D01*
X284480Y952500D01*
D11*
X292100Y952500D03*
D10*
X43180Y101600D02*
X43182Y101787D01*
X43189Y101974D01*
X43201Y102161D01*
X43217Y102347D01*
X43237Y102533D01*
X43262Y102718D01*
X43292Y102903D01*
X43326Y103087D01*
X43365Y103270D01*
X43408Y103452D01*
X43456Y103632D01*
X43508Y103812D01*
X43565Y103990D01*
X43625Y104167D01*
X43691Y104342D01*
X43760Y104516D01*
X43834Y104688D01*
X43912Y104858D01*
X43994Y105026D01*
X44080Y105192D01*
X44170Y105356D01*
X44264Y105517D01*
X44362Y105677D01*
X44464Y105833D01*
X44570Y105988D01*
X44680Y106139D01*
X44793Y106288D01*
X44910Y106434D01*
X45030Y106577D01*
X45154Y106717D01*
X45281Y106854D01*
X45412Y106988D01*
X45546Y107119D01*
X45683Y107246D01*
X45823Y107370D01*
X45966Y107490D01*
X46112Y107607D01*
X46261Y107720D01*
X46412Y107830D01*
X46567Y107936D01*
X46723Y108038D01*
X46883Y108136D01*
X47044Y108230D01*
X47208Y108320D01*
X47374Y108406D01*
X47542Y108488D01*
X47712Y108566D01*
X47884Y108640D01*
X48058Y108709D01*
X48233Y108775D01*
X48410Y108835D01*
X48588Y108892D01*
X48768Y108944D01*
X48948Y108992D01*
X49130Y109035D01*
X49313Y109074D01*
X49497Y109108D01*
X49682Y109138D01*
X49867Y109163D01*
X50053Y109183D01*
X50239Y109199D01*
X50426Y109211D01*
X50613Y109218D01*
X50800Y109220D01*
X50987Y109218D01*
X51174Y109211D01*
X51361Y109199D01*
X51547Y109183D01*
X51733Y109163D01*
X51918Y109138D01*
X52103Y109108D01*
X52287Y109074D01*
X52470Y109035D01*
X52652Y108992D01*
X52832Y108944D01*
X53012Y108892D01*
X53190Y108835D01*
X53367Y108775D01*
X53542Y108709D01*
X53716Y108640D01*
X53888Y108566D01*
X54058Y108488D01*
X54226Y108406D01*
X54392Y108320D01*
X54556Y108230D01*
X54717Y108136D01*
X54877Y108038D01*
X55033Y107936D01*
X55188Y107830D01*
X55339Y107720D01*
X55488Y107607D01*
X55634Y107490D01*
X55777Y107370D01*
X55917Y107246D01*
X56054Y107119D01*
X56188Y106988D01*
X56319Y106854D01*
X56446Y106717D01*
X56570Y106577D01*
X56690Y106434D01*
X56807Y106288D01*
X56920Y106139D01*
X57030Y105988D01*
X57136Y105833D01*
X57238Y105677D01*
X57336Y105517D01*
X57430Y105356D01*
X57520Y105192D01*
X57606Y105026D01*
X57688Y104858D01*
X57766Y104688D01*
X57840Y104516D01*
X57909Y104342D01*
X57975Y104167D01*
X58035Y103990D01*
X58092Y103812D01*
X58144Y103632D01*
X58192Y103452D01*
X58235Y103270D01*
X58274Y103087D01*
X58308Y102903D01*
X58338Y102718D01*
X58363Y102533D01*
X58383Y102347D01*
X58399Y102161D01*
X58411Y101974D01*
X58418Y101787D01*
X58420Y101600D01*
X58418Y101413D01*
X58411Y101226D01*
X58399Y101039D01*
X58383Y100853D01*
X58363Y100667D01*
X58338Y100482D01*
X58308Y100297D01*
X58274Y100113D01*
X58235Y99930D01*
X58192Y99748D01*
X58144Y99568D01*
X58092Y99388D01*
X58035Y99210D01*
X57975Y99033D01*
X57909Y98858D01*
X57840Y98684D01*
X57766Y98512D01*
X57688Y98342D01*
X57606Y98174D01*
X57520Y98008D01*
X57430Y97844D01*
X57336Y97683D01*
X57238Y97523D01*
X57136Y97367D01*
X57030Y97212D01*
X56920Y97061D01*
X56807Y96912D01*
X56690Y96766D01*
X56570Y96623D01*
X56446Y96483D01*
X56319Y96346D01*
X56188Y96212D01*
X56054Y96081D01*
X55917Y95954D01*
X55777Y95830D01*
X55634Y95710D01*
X55488Y95593D01*
X55339Y95480D01*
X55188Y95370D01*
X55033Y95264D01*
X54877Y95162D01*
X54717Y95064D01*
X54556Y94970D01*
X54392Y94880D01*
X54226Y94794D01*
X54058Y94712D01*
X53888Y94634D01*
X53716Y94560D01*
X53542Y94491D01*
X53367Y94425D01*
X53190Y94365D01*
X53012Y94308D01*
X52832Y94256D01*
X52652Y94208D01*
X52470Y94165D01*
X52287Y94126D01*
X52103Y94092D01*
X51918Y94062D01*
X51733Y94037D01*
X51547Y94017D01*
X51361Y94001D01*
X51174Y93989D01*
X50987Y93982D01*
X50800Y93980D01*
X50613Y93982D01*
X50426Y93989D01*
X50239Y94001D01*
X50053Y94017D01*
X49867Y94037D01*
X49682Y94062D01*
X49497Y94092D01*
X49313Y94126D01*
X49130Y94165D01*
X48948Y94208D01*
X48768Y94256D01*
X48588Y94308D01*
X48410Y94365D01*
X48233Y94425D01*
X48058Y94491D01*
X47884Y94560D01*
X47712Y94634D01*
X47542Y94712D01*
X47374Y94794D01*
X47208Y94880D01*
X47044Y94970D01*
X46883Y95064D01*
X46723Y95162D01*
X46567Y95264D01*
X46412Y95370D01*
X46261Y95480D01*
X46112Y95593D01*
X45966Y95710D01*
X45823Y95830D01*
X45683Y95954D01*
X45546Y96081D01*
X45412Y96212D01*
X45281Y96346D01*
X45154Y96483D01*
X45030Y96623D01*
X44910Y96766D01*
X44793Y96912D01*
X44680Y97061D01*
X44570Y97212D01*
X44464Y97367D01*
X44362Y97523D01*
X44264Y97683D01*
X44170Y97844D01*
X44080Y98008D01*
X43994Y98174D01*
X43912Y98342D01*
X43834Y98512D01*
X43760Y98684D01*
X43691Y98858D01*
X43625Y99033D01*
X43565Y99210D01*
X43508Y99388D01*
X43456Y99568D01*
X43408Y99748D01*
X43365Y99930D01*
X43326Y100113D01*
X43292Y100297D01*
X43262Y100482D01*
X43237Y100667D01*
X43217Y100853D01*
X43201Y101039D01*
X43189Y101226D01*
X43182Y101413D01*
X43180Y101600D01*
D11*
X50800Y101600D03*
D12*
X406400Y876300D03*
D13*
X431800Y876300D03*
X457200Y876300D03*
X482600Y876300D03*
X508000Y876300D03*
X533400Y876300D03*
X558800Y876300D03*
X584200Y876300D03*
X609600Y876300D03*
X635000Y876300D03*
X660400Y876300D03*
X685800Y876300D03*
X711200Y876300D03*
X736600Y876300D03*
X762000Y876300D03*
X787400Y876300D03*
X812800Y876300D03*
X838200Y876300D03*
X863600Y876300D03*
X889000Y876300D03*
D12*
X406400Y114300D03*
D13*
X431800Y114300D03*
X457200Y114300D03*
X482600Y114300D03*
X508000Y114300D03*
X533400Y114300D03*
X558800Y114300D03*
X584200Y114300D03*
X609600Y114300D03*
X635000Y114300D03*
X660400Y114300D03*
X685800Y114300D03*
X711200Y114300D03*
X736600Y114300D03*
X762000Y114300D03*
X787400Y114300D03*
X812800Y114300D03*
X838200Y114300D03*
X863600Y114300D03*
X889000Y114300D03*
D14*
X361950Y114300D03*
X933450Y114300D03*
X361950Y876300D03*
X933450Y876300D03*
D15*
X1041400Y254000D03*
D16*
X1066400Y254000D03*
X1086400Y254000D03*
X1111400Y254000D03*
D17*
X1010700Y226900D03*
X1142100Y226900D03*
D18*
X50800Y965200D03*
X1219200Y965200D03*
X1219200Y50800D03*
X50800Y50800D03*
D19*
X1067200Y508000D03*
X1092200Y508000D03*
X1117200Y508000D03*
D20*
X1042200Y578000D03*
X1142200Y578000D03*
D19*
X284880Y525780D03*
X309880Y525780D03*
X334880Y525780D03*
D20*
X259880Y595780D03*
X359880Y595780D03*
D21*
X214900Y761600D03*
X214900Y711600D03*
X89900Y711600D03*
X89900Y761600D03*
X214900Y914000D03*
X214900Y864000D03*
X89900Y864000D03*
X89900Y914000D03*
D22*
X59100Y187700D03*
D23*
X59100Y213100D03*
X84500Y187700D03*
X84500Y213100D03*
X109900Y187700D03*
X109900Y213100D03*
X135300Y187700D03*
X135300Y213100D03*
X160700Y187700D03*
X160700Y213100D03*
X186100Y187700D03*
X186100Y213100D03*
X211500Y187700D03*
X211500Y213100D03*
X236900Y187700D03*
X236900Y213100D03*
X262300Y187700D03*
X262300Y213100D03*
X287700Y187700D03*
X287700Y213100D03*
X313100Y187700D03*
X313100Y213100D03*
X338500Y187700D03*
X338500Y213100D03*
X363900Y187700D03*
X363900Y213100D03*
X389300Y187700D03*
X389300Y213100D03*
X414700Y187700D03*
X414700Y213100D03*
X440100Y187700D03*
X440100Y213100D03*
X465500Y187700D03*
X465500Y213100D03*
X490900Y187700D03*
X490900Y213100D03*
D22*
X59100Y441700D03*
D23*
X59100Y467100D03*
X84500Y441700D03*
X84500Y467100D03*
X109900Y441700D03*
X109900Y467100D03*
X135300Y441700D03*
X135300Y467100D03*
X160700Y441700D03*
X160700Y467100D03*
X186100Y441700D03*
X186100Y467100D03*
X211500Y441700D03*
X211500Y467100D03*
X236900Y441700D03*
X236900Y467100D03*
X262300Y441700D03*
X262300Y467100D03*
X287700Y441700D03*
X287700Y467100D03*
X313100Y441700D03*
X313100Y467100D03*
X338500Y441700D03*
X338500Y467100D03*
X363900Y441700D03*
X363900Y467100D03*
X389300Y441700D03*
X389300Y467100D03*
X414700Y441700D03*
X414700Y467100D03*
X440100Y441700D03*
X440100Y467100D03*
X465500Y441700D03*
X465500Y467100D03*
X490900Y441700D03*
X490900Y467100D03*
M02*
